<?xml version="1.0" encoding="UTF-8" standalone="no"?>
<!-- Created with Inkscape (http://www.inkscape.org/) -->

<svg
   version="1.1"
   id="svg1816"
   xml:space="preserve"
   width="800"
   height="266.66666"
   viewBox="0 0 800 266.66666"
   sodipodi:docname="logo.svg"
   inkscape:version="1.1.2 (b8e25be833, 2022-02-05)"
   xmlns:inkscape="http://www.inkscape.org/namespaces/inkscape"
   xmlns:sodipodi="http://sodipodi.sourceforge.net/DTD/sodipodi-0.dtd"
   xmlns="http://www.w3.org/2000/svg"
   xmlns:svg="http://www.w3.org/2000/svg"><defs
     id="defs1820"><clipPath
       clipPathUnits="userSpaceOnUse"
       id="clipPath1830"><path
         d="M 0,200 H 600 V 0 H 0 Z"
         id="path1828" /></clipPath></defs><sodipodi:namedview
     id="namedview1818"
     pagecolor="#ffffff"
     bordercolor="#666666"
     borderopacity="1.0"
     inkscape:pageshadow="2"
     inkscape:pageopacity="0.0"
     inkscape:pagecheckerboard="0"
     showgrid="false"
     inkscape:zoom="1.35125"
     inkscape:cx="400"
     inkscape:cy="133.20999"
     inkscape:window-width="1920"
     inkscape:window-height="1017"
     inkscape:window-x="-8"
     inkscape:window-y="-8"
     inkscape:window-maximized="1"
     inkscape:current-layer="g1822" /><g
     id="g1822"
     inkscape:groupmode="layer"
     inkscape:label="IRC Logo"
     transform="matrix(1.3333333,0,0,-1.3333333,0,266.66667)"><g
       id="g1824"><g
         id="g1826"
         clip-path="url(#clipPath1830)"><g
           id="g1832"
           transform="translate(186.5005,50.0605)"><path
             d="m 0,0 c 0,0 5.328,0.979 9.37,0.367 4.042,-0.612 7.289,-1.654 7.594,-2.021 0.307,-0.367 1.716,-2.511 -0.061,-3.368 C 15.127,-5.88 14.147,-7.166 7.961,-4.165 1.775,-1.164 3.612,-1.531 3,-1.287 2.388,-1.041 -1.103,-0.185 0,0"
             style="fill:#0055a3;fill-opacity:1;fill-rule:nonzero;stroke:none"
             id="path1834" /></g><g
           id="g1836"
           transform="translate(171.9229,49.0195)"><path
             d="m 0,0 c 0,0 0.184,0.796 1.715,0.857 1.532,0.061 2.88,0 3.858,-0.123 0.981,-0.122 3.246,-0.306 4.778,-0.673 0.23,-0.055 4.114,-1.025 5.022,-1.654 0.797,-0.552 2.021,-2.328 0.734,-3.184 -1.286,-0.858 -3.123,-1.348 -4.225,-1.348 -1.103,0 -3.368,0.367 -4.594,0.98 C 6.063,-4.532 0.796,-1.164 0.49,-0.919 0.184,-0.674 -0.429,-0.674 0,0"
             style="fill:#0055a3;fill-opacity:1;fill-rule:nonzero;stroke:none"
             id="path1838" /></g><g
           id="g1840"
           transform="translate(163.4712,48.3457)"><path
             d="M 0,0 C 0,0 1.715,0.367 2.449,0.184 3.184,0 4.042,-0.429 4.654,-0.735 c 0.613,-0.306 1.347,-0.552 2.511,-1.164 1.165,-0.613 2.328,-0.98 2.878,-1.164 0.552,-0.183 1.839,-0.735 2.083,-0.98 0.246,-0.244 0.49,-1.898 0.123,-2.082 -0.367,-0.184 -1.103,-0.552 -1.409,-0.674 -0.306,-0.122 -1.102,-0.245 -1.592,-0.245 -0.49,0 -2.021,0.184 -2.328,0.245 -0.307,0.062 -2.633,1.164 -2.94,1.47 C 3.675,-5.022 1.101,-3.002 0.918,-2.695 0.734,-2.389 -0.919,-0.979 0,0"
             style="fill:#0055a3;fill-opacity:1;fill-rule:nonzero;stroke:none"
             id="path1842" /></g><g
           id="g1844"
           transform="translate(154.4673,49.8154)"><path
             d="m 0,0 c 0,0 -0.858,-0.122 -0.919,-0.429 -0.061,-0.306 -0.061,-1.164 0.185,-1.469 0.244,-0.307 1.041,-1.165 1.285,-1.532 0.246,-0.367 0.735,-1.531 0.858,-1.898 0.122,-0.368 1.408,-2.083 1.776,-2.39 0.367,-0.305 2.572,-1.653 3.919,-1.775 1.349,-0.123 2.573,0.367 2.88,0.674 0.305,0.305 0.917,1.592 0.735,2.02 C 10.535,-6.37 8.268,-4.042 7.717,-3.736 7.166,-3.43 5.022,-1.593 4.165,-1.286 3.308,-0.98 1.226,0 0,0"
             style="fill:#0055a3;fill-opacity:1;fill-rule:nonzero;stroke:none"
             id="path1846" /></g><g
           id="g1848"
           transform="translate(149.2012,50.8564)"><path
             d="m 0,0 c 0,0 -1.531,0.551 -2.205,0.49 -0.674,-0.061 -1.041,-1.102 -1.041,-1.347 0,-0.246 -10e-4,-2.45 -0.062,-2.818 -0.061,-0.367 -0.306,-2.265 -0.49,-2.572 -0.183,-0.307 -0.306,-1.899 -0.183,-2.266 0.122,-0.368 0.857,-2.021 2.021,-2.389 1.164,-0.368 2.756,-0.368 3.552,-0.122 0.796,0.245 2.389,1.96 2.756,3.307 0.368,1.348 -0.796,4.716 -2.143,6.002 C 0.856,-0.429 0.306,-0.062 0,0"
             style="fill:#0055a3;fill-opacity:1;fill-rule:nonzero;stroke:none"
             id="path1850" /></g><g
           id="g1852"
           transform="translate(139.2178,51.8359)"><path
             d="m 0,0 c 0,0 -3.307,0 -3.919,-0.244 -0.613,-0.245 -6.064,-2.327 -6.738,-2.879 -0.674,-0.552 -2.571,-2.205 -3.123,-3.613 -0.551,-1.41 -0.551,-3.553 0.184,-4.227 0.735,-0.674 3.062,-1.041 4.349,-0.367 1.286,0.674 3.979,3.798 4.47,4.716 0.49,0.919 3.307,5.206 3.859,5.512 0.551,0.306 0.795,0.858 0.979,0.858 0.184,0 0.245,0.06 -0.061,0.244"
             style="fill:#0055a3;fill-opacity:1;fill-rule:nonzero;stroke:none"
             id="path1854" /></g><g
           id="g1856"
           transform="translate(128.1333,52.2041)"><path
             d="m 0,0 c 0,0 -3.308,-0.062 -4.839,-0.429 -1.531,-0.368 -4.226,-1.96 -5.205,-2.388 -0.818,-0.358 -2.94,-1.41 -3.369,-2.022 -0.429,-0.612 -2.022,-2.817 -0.981,-4.409 1.042,-1.593 3.43,-2.451 5.084,-2.022 1.103,0.287 2.89,1.313 4.9,3.614 1.004,1.15 1.981,3.032 3.123,4.471 1.654,2.082 1.96,2.756 1.96,2.756 0,0 -0.245,0.306 -0.673,0.429"
             style="fill:#0055a3;fill-opacity:1;fill-rule:nonzero;stroke:none"
             id="path1858" /></g><g
           id="g1860"
           transform="translate(116.5581,51.5918)"><path
             d="m 0,0 c -0.428,-0.029 -8.329,-1.531 -9.37,-1.838 -1.042,-0.306 -3.553,-1.837 -3.798,-2.449 -0.245,-0.613 -1.47,-2.817 0.123,-3.614 1.592,-0.796 3.001,-0.429 3.429,-0.307 0.429,0.123 3.001,1.471 3.307,1.716 0.308,0.244 4.962,4.532 5.33,4.899 C -0.612,-1.226 0.919,0.061 0,0"
             style="fill:#0055a3;fill-opacity:1;fill-rule:nonzero;stroke:none"
             id="path1862" /></g><g
           id="g1864"
           transform="translate(86.0957,30.1455)"><path
             d="m 0,0 c 0,0 5.43,-3.306 7.083,-4.643 1.652,-1.337 5.115,-4.485 5.744,-5.429 0.63,-0.946 2.833,-3.071 3.62,-3.149 0.786,-0.078 4.249,0.078 3.541,2.833 C 19.28,-7.633 13.299,-2.754 8.656,-1.259 4.013,0.236 1.022,0.157 0,0"
             style="fill:#0055a3;fill-opacity:1;fill-rule:nonzero;stroke:none"
             id="path1866" /></g><g
           id="g1868"
           transform="translate(51.5493,33.2148)"><path
             d="M 0,0 C 0,0 1.889,1.967 2.519,1.81 3.148,1.652 3.384,1.18 3.384,0.235 c 0,-0.943 -0.708,-6.373 -1.18,-7.869 -0.473,-1.494 -1.338,-6.137 -1.968,-6.845 -0.629,-0.709 -2.652,-4.117 -7.318,-2.597 -3.384,1.101 -2.99,5.43 -2.518,6.059 C -9.128,-10.388 -1.259,-0.786 0,0"
             style="fill:#0055a3;fill-opacity:1;fill-rule:nonzero;stroke:none"
             id="path1870" /></g><g
           id="g1872"
           transform="translate(57.8452,32.8994)"><path
             d="m 0,0 c 0,0 1.259,0.079 1.731,-0.236 0.472,-0.314 3.147,-3.541 3.384,-4.327 0.236,-0.788 2.518,-6.925 1.259,-10.939 -1.259,-4.014 -2.99,-5.43 -3.778,-5.508 -0.786,-0.08 -3.225,-0.237 -4.485,0.864 -1.259,1.103 -2.203,4.171 -1.338,6.455 0.866,2.281 2.991,9.521 2.833,11.095 C -0.551,-1.023 -0.472,-0.315 0,0"
             style="fill:#0055a3;fill-opacity:1;fill-rule:nonzero;stroke:none"
             id="path1874" /></g><g
           id="g1876"
           transform="translate(65.7925,18.8926)"><path
             d="m 0,0 c 0,0 -1.023,-7.869 0.708,-9.206 1.732,-1.339 5.038,-1.574 5.824,-1.339 0.787,0.236 1.809,1.416 2.361,2.99 0.55,1.575 0.315,6.768 -5.43,7.79 C -2.282,1.259 0,0 0,0"
             style="fill:#0055a3;fill-opacity:1;fill-rule:nonzero;stroke:none"
             id="path1878" /></g><g
           id="g1880"
           transform="translate(75.1572,25.9746)"><path
             d="m 0,0 c -0.986,0.141 -1.574,-0.078 -1.574,-0.078 0,0 -1.259,-0.865 0.393,-3.384 1.653,-2.518 3.069,-3.856 2.991,-8.892 -0.079,-5.037 2.833,-6.768 4.958,-6.611 2.125,0.157 3.777,2.754 3.856,5.744 0.078,2.992 -1.832,9.339 -7.397,12.278 C 1.191,0.131 0.569,-0.08 0,0"
             style="fill:#0055a3;fill-opacity:1;fill-rule:nonzero;stroke:none"
             id="path1882" /></g><g
           id="g1884"
           transform="translate(81.7671,28.0205)"><path
             d="m 0,0 c 0,0 -2.281,0 -1.809,-1.337 0.165,-0.47 0.481,-0.911 0.944,-1.339 0.605,-0.558 1.595,-1.042 2.518,-1.887 0.944,-0.867 2.282,-3.07 3.226,-6.689 0.391,-1.5 0.923,-2.959 1.968,-4.094 1.479,-1.603 3.735,-2.571 5.902,-2.202 3.699,0.63 4.328,4.564 3.619,5.981 -0.708,1.416 -4.8,7.397 -9.915,9.6 C 1.338,0.236 0.629,-0.157 0,0"
             style="fill:#0055a3;fill-opacity:1;fill-rule:nonzero;stroke:none"
             id="path1886" /></g><g
           id="g1888"
           transform="translate(52.1011,50.6836)"><path
             d="m 0,0 c 0,0 -7.24,0.236 -8.813,0.63 -1.574,0.393 -4.722,0.865 -7.397,2.755 -2.676,1.887 -8.657,3.855 -9.758,3.619 -1.102,-0.236 -4.879,-1.889 -4.014,-4.957 0.866,-3.069 3.699,-3.935 4.092,-4.092 0.394,-0.158 9.387,-2.656 15.266,-1.496 C -4.643,-2.36 -0.236,-0.708 0,0"
             style="fill:#0055a3;fill-opacity:1;fill-rule:nonzero;stroke:none"
             id="path1890" /></g><g
           id="g1892"
           transform="translate(49.9766,46.6709)"><path
             d="m 0,0 c 0,0 -4.092,-1.022 -5.351,-1.022 -1.259,0 -7.633,-0.474 -8.892,-0.316 -0.638,0.08 -5.263,0.271 -6.611,0.944 -0.472,0.237 -5.964,2.698 -7.239,-0.944 -1.102,-3.147 1.259,-4.249 2.754,-4.879 1.495,-0.63 6.374,-0.944 8.656,-0.551 1.806,0.312 6.695,1.484 9.443,2.518 0.863,0.325 2.095,0.826 2.44,1.023 1.652,0.945 4.249,2.362 4.8,3.227"
             style="fill:#0055a3;fill-opacity:1;fill-rule:nonzero;stroke:none"
             id="path1894" /></g><g
           id="g1896"
           transform="translate(49.7407,42.8936)"><path
             d="m 0,0 c 0,0 -2.519,-0.473 -4.407,-1.102 -1.889,-0.629 -3.463,-1.181 -4.25,-1.417 -0.786,-0.236 -4.878,-1.416 -6.059,-1.573 -1.18,-0.157 -5.902,-0.63 -7.397,-0.709 -1.495,-0.078 -4.013,-2.124 -4.092,-2.754 -0.079,-0.629 -0.629,-2.911 2.125,-4.25 2.754,-1.337 4.485,-0.944 6.689,-0.157 2.203,0.787 10.466,5.745 11.567,6.297 C -4.722,-5.115 2.361,-0.63 0,0"
             style="fill:#0055a3;fill-opacity:1;fill-rule:nonzero;stroke:none"
             id="path1898" /></g><g
           id="g1900"
           transform="translate(41.5566,32.1123)"><path
             d="m 0,0 c 0,0 -8.972,-2.518 -9.365,-4.014 -0.393,-1.495 -0.944,-4.328 0.945,-5.35 1.888,-1.023 6.216,-0.316 7.633,1.101 1.416,1.416 4.485,4.8 4.485,4.8 0,0 -0.157,4.566 -3.698,3.463"
             style="fill:#0055a3;fill-opacity:1;fill-rule:nonzero;stroke:none"
             id="path1902" /></g><g
           id="g1904"
           transform="translate(43.4297,185.7197)"><path
             d="m 0,0 c -2.168,2.639 -1.383,4.84 -1.383,4.84 0,0 0.787,4.913 6.826,0.796 6.039,-4.117 12.816,-16.213 12.816,-16.213 0,0 9.495,-16.907 11.926,-22.189 1.794,-3.904 8.134,-18.094 8.958,-21.662 0.822,-3.569 1.427,-11.735 0.374,-16.219 -0.539,-2.301 -0.974,-7.506 -1.725,-12.732 -0.734,-5.096 -1.646,-10.19 -2.047,-11.658 -0.823,-3.02 -2.084,-15.132 -0.656,-17.564 1.465,-2.495 5.996,-1.304 7.643,-1.853 1.647,-0.549 5.173,-1.313 8.106,-6.794 0.445,-0.831 0.355,-1.854 0.889,-2.548 0.235,-0.307 0.637,-0.367 0.926,-0.617 0.645,-0.557 2.098,-1.316 4.13,-2.625 2.147,-1.385 3.05,-2.355 3.05,-2.355 0,0 14.295,0.116 18.413,0.116 4.117,0 19.09,0.261 25.129,0.811 6.039,0.549 22.335,0.723 25.629,0.174 3.295,-0.55 14.964,-0.989 20.153,-2.182 2.856,-0.656 6.888,-1.803 10.731,-2.664 3.913,-0.875 8.056,-1.715 10.423,-1.89 2.792,-0.208 11.607,-0.388 17.139,0.81 4.96,1.074 8.106,0.888 8.106,0.888 0,0 5.394,-0.629 0.695,-4.709 -4.401,-3.822 -30.463,0.687 -32.11,1.237 -0.866,0.288 -6.202,1.937 -13.479,2.816 -6.561,0.792 -14.736,0.915 -22.003,-0.386 -1.596,-0.286 -3.135,-0.45 -4.246,-0.656 -3.236,-0.603 -4.407,-0.954 -5.172,-0.927 -1.082,0.039 -8.035,1.232 -10.616,2.316 -3.86,1.621 -22.08,1.969 -33.544,1.119 -13.212,-0.978 -16.727,-3.255 -22.217,-11.216 -5.49,-7.96 -14.049,-11.605 -14.049,-11.605 0,0 -10.653,-3.835 -11.477,-4.384 -0.324,-0.216 -1.159,-1.028 -1.144,-1.622 0.022,-0.914 0.169,-1.287 1.335,-1.619 1.921,-0.55 6.962,-1.252 7.785,-1.526 0.471,-0.156 1.221,-0.35 1.748,-1.398 0.396,-0.789 0.159,-1.843 -0.158,-3.559 -0.201,-1.087 -0.942,0.195 -1.716,1.239 -0.493,0.664 -1.177,1.144 -1.177,1.144 0,0 -3.051,0.843 -3.051,-0.254 0,-0.493 1.027,-0.604 1.431,-1.176 0.494,-0.703 0.158,-1.78 0.158,-1.78 0,0 -1.97,-1.62 -2.86,0.508 -0.282,0.676 -3.304,2.351 -6.992,2.67 -2.495,0.216 -5.389,0.371 -8.389,-1.175 -1.186,-0.612 -2.193,0.667 -1.494,1.397 1.031,1.078 2.034,1.367 2.034,1.367 l 7.595,3.845 c 0,0 1.875,0.858 -1.035,7.85 -0.888,2.132 -3.615,3.308 -5.257,3.877 -3.866,1.339 -7.378,-0.042 -7.378,-0.042 0,0 -1.839,-1.071 -0.822,-2.692 0.608,-0.968 2.425,-2.057 4.989,-3.781 3.736,-2.513 1.844,-4.482 1.844,-4.482 l -1.208,-0.889 c 0,0 -0.502,-0.016 -0.604,0.794 -0.095,0.764 -1.016,1.618 -2.002,2.257 -1.591,1.032 -4.971,2.056 -5.403,1.558 -0.684,-0.792 -0.587,-0.84 -2.605,-2.988 0,0 -0.726,0.076 -0.795,0.509 -0.052,0.326 0.077,0.995 -0.063,1.525 -0.239,0.899 -0.61,2.154 -1.367,3.147 -1.39,1.822 -4.546,3.417 -5.625,3.176 -1.522,-0.338 -2.031,-0.619 -2.51,-0.795 -0.299,-0.109 -0.35,0.033 -0.35,0.033 0,0 0.156,3.564 3.973,3.336 2.669,-0.159 6.099,-0.71 8.484,0.096 1.52,0.514 2.589,1.319 3.337,2.066 1.922,1.922 3.473,12.228 5.943,19.915 2.47,7.685 9.63,13.066 12.144,15.211 1.808,1.542 4.175,8.283 5.327,16.559 1.042,7.489 1.998,15.185 1.969,18.839 -0.038,4.979 -0.525,9.564 -1.544,12.583 -1.042,3.088 -2.84,5.358 -3.088,7.219 -0.549,4.117 -0.309,10.191 -1.776,15.904 -1.06,4.126 -2.118,13.338 -7.411,21.694 C 15.672,-12.97 9.959,-6.678 4.671,-3.32 2.157,-1.723 0.703,-0.854 0,0"
             style="fill:#0055a3;fill-opacity:1;fill-rule:nonzero;stroke:none"
             id="path1906" /></g><g
           id="g1908"
           transform="translate(78.6509,66.1045)"><path
             d="m 0,0 c 0,0 -0.637,-5.011 -0.716,-5.567 -0.079,-0.557 0.518,-2.188 2.386,-2.347 0.818,-0.069 2.173,0.148 3.023,0.796 1.092,0.832 1.443,2.488 -0.716,4.533 -2.267,2.148 -2.585,2.228 -2.585,2.228 z"
             style="fill:#ffffff;fill-opacity:1;fill-rule:nonzero;stroke:none"
             id="path1910" /></g><g
           id="g1912"
           transform="translate(79.2476,65.3887)"><path
             d="M 0,0 C 0,0 -1.153,-5.369 0.278,-6.085 1.71,-6.801 3.539,-6.402 3.897,-5.846 4.255,-5.289 4.334,-1.829 0,0"
             style="fill:#0055a3;fill-opacity:1;fill-rule:nonzero;stroke:none"
             id="path1914" /></g><g
           id="g1916"
           transform="translate(79.7246,63.9971)"><path
             d="M 0,0 C 0,0 -0.875,-2.744 0.278,-3.659 1.432,-4.573 2.903,-4.216 3.102,-4.057 3.3,-3.897 2.426,-0.597 0,0"
             style="fill:#ffffff;fill-opacity:1;fill-rule:nonzero;stroke:none"
             id="path1918" /></g><g
           id="g1920"
           transform="translate(75.5488,68.4111)"><path
             d="m 0,0 c 0,0 -2.188,-0.478 -2.545,-1.034 -0.358,-0.557 -0.716,-1.392 -0.318,-1.591 0.397,-0.199 0.875,-0.159 1.79,0.756 0.914,0.914 1.709,1.988 1.073,1.988"
             style="fill:#ffffff;fill-opacity:1;fill-rule:nonzero;stroke:none"
             id="path1922" /></g><g
           id="g1924"
           transform="translate(71.6909,64.7129)"><path
             d="m 0,0 c -0.069,0.416 0.279,1.392 -0.198,1.511 0,0 -1.432,-1.033 -1.154,-2.823 0.279,-1.79 0.128,-1.715 1.432,-0.995 1.511,0.835 2.267,2.426 1.829,2.545 C 1.472,0.357 1.312,-0.159 0.796,-0.238 0.555,-0.275 0.061,-0.363 0,0"
             style="fill:#ffffff;fill-opacity:1;fill-rule:nonzero;stroke:none"
             id="path1926" /></g><g
           id="g1928"
           transform="translate(69.0669,61.5313)"><path
             d="M 0,0 C 0,0 -0.597,-1.869 -0.358,-3.301 -0.192,-4.294 -0.08,-4.335 1.113,-3.46 2.306,-2.585 5.008,0 3.34,0.119 2.227,0.198 1.551,-1.074 1.551,-1.074 c 0,0 -0.756,-0.517 -0.716,0.04 C 0.875,-0.478 0.636,0.795 0,0"
             style="fill:#ffffff;fill-opacity:1;fill-rule:nonzero;stroke:none"
             id="path1930" /></g><g
           id="g1932"
           transform="translate(72.0889,58.9063)"><path
             d="m 0,0 c 0,0 -0.557,-1.152 -0.517,-1.829 0.04,-0.676 -0.238,-2.624 1.511,-1.67 1.751,0.954 2.961,2.924 0.637,2.227 -0.398,-0.12 -0.637,-0.398 -0.637,-0.398 0,0 -0.224,0.222 -0.263,0.595 -0.046,0.433 -0.11,0.913 -0.174,0.956 C 0.437,-0.039 0.437,0.04 0,0"
             style="fill:#ffffff;fill-opacity:1;fill-rule:nonzero;stroke:none"
             id="path1934" /></g><g
           id="g1936"
           transform="translate(71.333,54.5322)"><path
             d="m 0,0 c 0,0 -0.597,-0.836 -0.199,-2.545 l 0.398,-1.71 c 0,0 1.194,0.517 1.829,1.352 0.637,0.835 0.518,1.312 -0.238,0.994 -0.755,-0.319 -0.636,-0.319 -0.636,-0.319 0,0 -0.119,1.671 -0.517,1.91 C 0.239,-0.08 0.597,0 0,0"
             style="fill:#ffffff;fill-opacity:1;fill-rule:nonzero;stroke:none"
             id="path1938" /></g><g
           id="g1940"
           transform="translate(73.123,50.0781)"><path
             d="m 0,0 c 0,0 -1.511,-0.756 -1.352,-1.272 0.159,-0.517 1.034,-2.864 1.232,-3.063 0.2,-0.198 2.745,2.744 2.983,3.182 C 3.102,-0.716 2.426,0.04 1.59,-0.836 0.756,-1.71 0.677,-1.869 0.637,-1.432 0.597,-0.994 0.676,0.238 0,0"
             style="fill:#ffffff;fill-opacity:1;fill-rule:nonzero;stroke:none"
             id="path1942" /></g><g
           id="g1944"
           transform="translate(74.356,54.8496)"><path
             d="m 0,0 c 0,0 0.962,0.05 1.551,-0.397 0.395,-0.3 0.485,-1 0.517,-1.432 0.079,-1.073 1.034,0.279 1.153,0.398 0.119,0.119 0.597,0.834 0.756,0.477 C 4.136,-1.312 3.618,-2.624 3.221,-2.942 2.823,-3.261 0.597,-5.011 0.318,-5.011 0.04,-5.011 -0.437,-0.596 0,0"
             style="fill:#ffffff;fill-opacity:1;fill-rule:nonzero;stroke:none"
             id="path1946" /></g><g
           id="g1948"
           transform="translate(92.1724,62.4063)"><path
             d="m 0,0 c 0,0 -2.466,-2.347 -2.625,-2.466 -0.159,-0.119 -0.159,-0.476 -0.438,-0.317 -0.278,0.158 -0.915,0.676 -1.511,0.715 -0.596,0.04 -2.306,-0.636 -2.783,-1.074 -0.478,-0.437 -2.546,-2.187 -2.864,-2.385 -0.318,-0.2 -0.756,-0.518 -0.437,-1.314 0.318,-0.795 1.511,-1.908 1.869,-2.265 0.358,-0.359 1.472,-3.023 1.551,-3.779 0.079,-0.756 0.198,-1.232 0.198,-1.431 0,-0.2 0.359,-0.12 0.836,0.795 0.477,0.915 2.068,3.261 2.346,3.579 0.279,0.318 0.438,0.397 0.557,0.199 0.119,-0.199 0.08,-0.597 0.318,-0.557 0.239,0.04 0.795,1.033 0.835,1.313 0.04,0.278 0.557,2.466 0.477,3.141 -0.079,0.676 0.199,0.597 0.478,0.676 0.278,0.079 0.994,0.079 1.193,0.438 0.198,0.357 0.636,3.499 0.477,4.095 C 0.317,-0.04 0.318,0.039 0,0"
             style="fill:#ffffff;fill-opacity:1;fill-rule:nonzero;stroke:none"
             id="path1950" /></g><g
           id="g1952"
           transform="translate(86.6841,57.5146)"><path
             d="m 0,0 c 0,0 -0.801,-0.458 -1.988,-0.835 -0.595,-0.188 -1.154,-0.477 -2.188,-0.398 -0.521,0.041 0.08,-1.074 0.08,-1.074 0,0 1.988,-2.187 2.386,-2.585 0.415,-0.415 1.71,-0.875 2.466,0 0.755,0.875 0.874,1.591 0.516,1.87 -0.357,0.278 -1.566,0.986 -1.709,1.272 -0.239,0.478 -0.142,1.06 0,1.153 C -0.199,-0.437 0.239,-0.357 0,0"
             style="fill:#0055a3;fill-opacity:1;fill-rule:nonzero;stroke:none"
             id="path1954" /></g><g
           id="g1956"
           transform="translate(91.854,61.2529)"><path
             d="m 0,0 c 0,0 -1.79,-1.83 -2.187,-1.909 -0.398,-0.079 -0.278,-0.198 -0.08,-0.477 0.199,-0.279 0.358,-0.517 0.358,-0.677 0,-0.159 0.318,0.041 0.318,0.319 0,0.278 1.471,1.631 1.67,1.631 C 0.278,-1.113 0.517,-0.278 0,0"
             style="fill:#0055a3;fill-opacity:1;fill-rule:nonzero;stroke:none"
             id="path1958" /></g><g
           id="g1960"
           transform="translate(88.9512,50.5557)"><path
             d="m 0,0 c 0,0 -0.637,-0.278 -0.835,-1.75 -0.2,-1.472 -0.16,-2.307 -0.437,-2.625 -0.279,-0.318 -0.518,-1.63 0.158,-0.875 0.676,0.756 1.75,2.426 1.83,2.704 C 0.795,-2.267 0.517,-0.358 0,0"
             style="fill:#ffffff;fill-opacity:1;fill-rule:nonzero;stroke:none"
             id="path1962" /></g><g
           id="g1964"
           transform="translate(89.229,51.4697)"><path
             d="M 0,0 C 0,0 0.795,-1.829 0.875,-2.307 0.955,-2.784 1.233,-2.585 1.869,-1.789 2.506,-0.994 4.295,1.79 3.938,2.028 3.58,2.267 1.869,0.358 1.67,0.119 1.472,-0.119 0.358,0.518 0,0"
             style="fill:#ffffff;fill-opacity:1;fill-rule:nonzero;stroke:none"
             id="path1966" /></g><g
           id="g1968"
           transform="translate(94.439,60.0195)"><path
             d="m 0,0 c 0,0 -1.432,-2.227 -1.67,-3.141 -0.239,-0.915 -0.438,-1.273 0.079,-1.87 0.517,-0.595 1.074,-1.431 0.955,0 -0.119,1.433 0.358,2.824 0.438,3.182 C -0.119,-1.471 0.358,-0.238 0,0"
             style="fill:#ffffff;fill-opacity:1;fill-rule:nonzero;stroke:none"
             id="path1970" /></g><g
           id="g1972"
           transform="translate(94.9956,59.9004)"><path
             d="m 0,0 c 0,0 -0.596,-1.352 -0.477,-2.067 0.119,-0.716 0.795,-2.386 1.272,-2.426 0.478,-0.04 1.433,0.875 1.512,1.153 0.079,0.277 -0.796,0.716 -1.273,1.273 C 0.557,-1.511 0.597,-0.079 0,0"
             style="fill:#ffffff;fill-opacity:1;fill-rule:nonzero;stroke:none"
             id="path1974" /></g><g
           id="g1976"
           transform="translate(55.9844,45.7295)"><path
             d="m 0,0 c 0,0 -1.84,-2.848 -1.402,-3.111 0.438,-0.263 0.92,0.614 1.227,0.482 C 0.132,-2.76 1.314,-4.162 1.752,-4.469 2.191,-4.776 1.358,-2.629 0.92,-1.972 0.482,-1.314 0.701,0.132 0,0"
             style="fill:#ffffff;fill-opacity:1;fill-rule:nonzero;stroke:none"
             id="path1978" /></g><g
           id="g1980"
           transform="translate(53.9253,41.5674)"><path
             d="m 0,0 c 0,0 -1.665,-2.585 -1.183,-2.892 0.482,-0.307 0.832,0.526 1.139,0.702 0.307,0.174 0.833,-0.307 1.183,-0.92 0.351,-0.615 0.789,-1.577 1.008,-1.184 0.219,0.395 -0.351,2.19 -0.482,2.541 C 1.533,-1.402 1.402,0.044 0.657,0.175 -0.088,0.307 0.263,0.219 0,0"
             style="fill:#ffffff;fill-opacity:1;fill-rule:nonzero;stroke:none"
             id="path1982" /></g><g
           id="g1984"
           transform="translate(56.335,41.6982)"><path
             d="m 0,0 c 0,0 0.789,-0.525 1.621,-1.446 0.833,-0.92 2.016,-1.795 2.016,-1.971 0,-0.176 -0.394,-0.569 -1.008,0.087 C 2.015,-2.673 1.271,-1.796 0.701,-1.709 0.131,-1.621 0.087,-2.146 0.044,-2.366 0,-2.585 -0.527,-2.938 -0.351,-0.307 -0.307,0.351 0,0 0,0"
             style="fill:#ffffff;fill-opacity:1;fill-rule:nonzero;stroke:none"
             id="path1986" /></g><g
           id="g1988"
           transform="translate(57.2114,39.0693)"><path
             d="m 0,0 c 0,0 3.286,-2.146 3.374,-2.453 0.087,-0.307 0,-0.657 -0.526,-0.395 -0.526,0.263 -2.935,0.833 -3.067,0.92 C -0.351,-1.84 -0.789,0.482 0,0"
             style="fill:#ffffff;fill-opacity:1;fill-rule:nonzero;stroke:none"
             id="path1990" /></g><g
           id="g1992"
           transform="translate(67.0259,25.0488)"><path
             d="m 0,0 c 0,0 -1.139,-2.189 -3.199,-2.935 -2.059,-0.745 -2.234,-0.876 -2.497,-0.963 -0.263,-0.088 -3.417,-1.665 -3.812,-1.884 -0.394,-0.22 -0.92,-0.745 -0.832,-1.008 0.087,-0.263 0.087,-0.526 0.788,-0.088 0.701,0.439 2.629,0.657 3.593,0.832 0.964,0.176 3.33,0.526 4.82,0.22 1.489,-0.307 2.146,-0.395 3.154,-0.701 1.008,-0.307 4.251,-1.666 4.864,-2.542 0.613,-0.876 0.35,-0.787 0.35,-0.787 0,0 0.525,0.086 0.876,0.612 0.351,0.526 -0.131,1.446 -0.35,1.622 -0.219,0.175 -1.49,0.788 -1.227,1.27 0.264,0.482 0.614,0.35 1.359,0.438 0.745,0.088 1.532,0.394 2.365,0.044 0.833,-0.351 2.367,-1.796 2.367,-2.321 0,-0.527 0.174,-0.922 0.394,-0.439 0.219,0.481 0.35,3.11 0.088,3.329 -0.264,0.22 -1.264,1.225 -2.67,1.446 -1.405,0.219 -2.72,0.307 -3.377,0.395 -0.657,0.087 -3.724,0.876 -4.031,0.92 -0.306,0.044 -1.704,0.844 -1.051,2.146 0.218,0.439 0.613,0.832 0.613,0.832 0,0 -2.278,-0.13 -2.672,-0.042 -0.155,0.034 -0.084,-0.437 -0.044,-0.571"
             style="fill:#ffffff;fill-opacity:1;fill-rule:nonzero;stroke:none"
             id="path1994" /></g><g
           id="g1996"
           transform="translate(65.4922,32.4541)"><path
             d="M 0,0 C 0,0 3.812,-0.875 4.207,-1.183 4.601,-1.489 5.302,-2.278 4.601,-2.716 3.9,-3.154 2.542,-2.848 2.059,-2.672 1.578,-2.497 0.833,-2.059 1.051,-2.015 1.271,-1.971 1.84,-1.928 2.016,-1.884 2.191,-1.84 1.184,-1.489 0.833,-1.357 0.482,-1.227 -0.657,0.22 0,0"
             style="fill:#ffffff;fill-opacity:1;fill-rule:nonzero;stroke:none"
             id="path1998" /></g><g
           id="g2000"
           transform="translate(67.0259,28.1611)"><path
             d="M 0,0 C 0,0 2.935,0.788 3.68,0.744 4.425,0.701 5.126,0.043 4.732,-0.351 4.338,-0.745 3.812,-1.403 3.286,-1.403 c -0.526,0 -0.788,0.089 -0.788,0.089 0,0 0.788,0.877 0.481,0.919 -0.306,0.044 -1.84,0.086 -2.278,0.044 C 0.263,-0.395 -0.613,-0.22 0,0"
             style="fill:#ffffff;fill-opacity:1;fill-rule:nonzero;stroke:none"
             id="path2002" /></g><g
           id="g2004"
           transform="translate(71.4072,30.1758)"><path
             d="M 0,0 C 0,0 3.155,-0.087 3.461,-0.437 3.768,-0.788 3.549,-1.489 3.242,-1.62 2.698,-1.853 1.104,-1.975 1.095,-1.971 c -0.175,0.066 -0.262,0.289 0,0.438 0.263,0.148 0.658,0.262 0.527,0.35 C 1.358,-1.007 -0.964,-0.175 0,0"
             style="fill:#ffffff;fill-opacity:1;fill-rule:nonzero;stroke:none"
             id="path2006" /></g><g
           id="g2008"
           transform="translate(75.6577,29.9131)"><path
             d="M 0,0 C 0,0 -0.438,-1.227 0.043,-1.139 0.525,-1.051 1.972,-0.131 2.935,0 3.899,0.132 4.118,0.351 3.592,0.351 3.066,0.351 0.35,0.045 0,0.088"
             style="fill:#ffffff;fill-opacity:1;fill-rule:nonzero;stroke:none"
             id="path2010" /></g><g
           id="g2012"
           transform="translate(51.5039,37.9785)"><path
             d="m 0,0 c 0,0 -1.574,-1.485 -2.911,-1.901 -1.337,-0.415 -2.287,-0.356 -2.673,-0.356 -0.386,0 -5.702,0.356 -6.326,0.326 -0.624,-0.03 -1.663,0 -2.198,-0.356 -0.534,-0.357 -1.544,-1.782 -1.485,-2.139 0.06,-0.356 0.149,-0.237 0.149,-0.237 0,0 1.366,0.624 1.96,0.713 0.594,0.089 1.515,0.059 2.376,-0.297 0.861,-0.357 2.851,-1.693 3.386,-2.021 0.535,-0.325 1.336,-1.722 1.603,-2.226 0.267,-0.506 0.684,-2.852 0.535,-3.179 -0.148,-0.326 -0.089,-0.444 -0.089,-0.444 l 0.386,-0.061 c 0,0 1.96,2.792 2.435,3 0.476,0.209 1.634,-10e-4 1.991,-0.059 0.356,-0.06 3.236,-1.128 4.038,-1.604 0.802,-0.474 1.812,-1.337 1.871,-1.693 0.06,-0.356 0.327,-0.921 0.268,-1.069 -0.06,-0.149 0.178,-0.208 0.178,-0.208 0,0 0.773,0.475 1.188,1.07 0.416,0.594 0.149,1.752 -0.208,2.079 -0.356,0.326 -4.276,3.386 -4.93,3.92 -0.653,0.535 -2.228,1.663 -2.228,2.109 0,0.445 0.149,1.662 0.476,1.989 0.327,0.327 2.02,1.514 2.287,1.485 0.267,-0.029 -0.06,0.267 -0.06,0.267 0,0 -1.307,-0.088 -1.603,-0.177 C 0.119,-1.159 0.327,-0.208 0,0"
             style="fill:#ffffff;fill-opacity:1;fill-rule:nonzero;stroke:none"
             id="path2014" /></g><g
           id="g2016"
           transform="translate(25.582,54.3037)"><path
             d="M 0,0 C 0,0 2.125,1.102 3.069,0.944 4.013,0.787 5.115,0.079 5.508,-0.078 5.901,-0.235 2.439,-1.259 2.754,-1.731 3.069,-2.203 4.485,-5.43 4.878,-5.665 5.272,-5.901 2.675,-5.272 2.282,-5.036 1.888,-4.8 -0.787,-0.708 0,0"
             style="fill:#ffffff;fill-opacity:1;fill-rule:nonzero;stroke:none"
             id="path2018" /></g><g
           id="g2020"
           transform="translate(35.2607,49.8184)"><path
             d="M 0,0 C 0,0 1.731,1.26 2.125,1.26 2.519,1.26 3.541,1.102 3.856,1.102 4.171,1.102 2.99,0.236 3.148,-0.157 3.306,-0.551 3.699,-0.865 4.092,-1.338 4.486,-1.811 3.463,-2.046 3.069,-2.046 2.676,-2.046 2.519,-2.203 2.204,-2.203 1.889,-2.203 -0.314,-0.157 0,0"
             style="fill:#ffffff;fill-opacity:1;fill-rule:nonzero;stroke:none"
             id="path2022" /></g><g
           id="g2024"
           transform="translate(23.9292,44.4668)"><path
             d="m 0,0 c 0,0 1.967,-3.068 2.282,-3.147 0.315,-0.079 2.125,-0.158 2.125,-0.158 0,0 -1.417,2.046 -1.102,2.125 0.315,0.079 1.81,0.629 1.889,0.866 C 5.272,-0.078 3.462,0.551 2.833,0.551 2.204,0.551 0.394,0.158 0,0"
             style="fill:#ffffff;fill-opacity:1;fill-rule:nonzero;stroke:none"
             id="path2026" /></g><g
           id="g2028"
           transform="translate(33.3726,42.7363)"><path
             d="m 0,0 c 0,0 2.203,-1.338 2.439,-1.338 0.236,0 1.102,0.551 1.102,0.551 l -0.63,0.629 0.316,0.472 V 0.63 H 2.361 C 2.361,0.63 0.314,0.236 0,0"
             style="fill:#ffffff;fill-opacity:1;fill-rule:nonzero;stroke:none"
             id="path2030" /></g><g
           id="g2032"
           transform="translate(27.2344,35.8115)"><path
             d="m 0,0 2.282,0.314 -1.023,-2.439 2.99,-0.708 0.709,-0.079 c 0,0 -1.26,-1.181 -1.574,-1.181 -0.315,0 -4.958,1.024 -4.958,1.496 0,0.472 1.259,2.283 1.574,2.597"
             style="fill:#ffffff;fill-opacity:1;fill-rule:nonzero;stroke:none"
             id="path2034" /></g><g
           id="g2036"
           transform="translate(36.6772,28.4922)"><path
             d="m 0,0 c 0,0 -2.046,-0.394 -2.439,-1.101 -0.394,-0.709 -0.787,-2.361 -0.787,-2.361 0,0 1.731,-1.101 2.439,-1.101 0.709,0 2.676,-0.159 3.62,0.787 0.548,0.547 -0.649,0.59 -1.731,0.865 -0.783,0.198 -1.496,0.708 -1.496,0.708 l 0.473,2.439"
             style="fill:#ffffff;fill-opacity:1;fill-rule:nonzero;stroke:none"
             id="path2038" /></g><g
           id="g2040"
           transform="translate(42.5796,31.6406)"><path
             d="m 0,0 0.157,-1.496 1.338,0.079 0.079,-0.629 c 0,0 -0.63,-1.1 -1.023,-1.259 -0.394,-0.158 -3.069,-0.315 -2.99,0 C -2.361,-2.991 -1.889,-1.023 0,0"
             style="fill:#ffffff;fill-opacity:1;fill-rule:nonzero;stroke:none"
             id="path2042" /></g><g
           id="g2044"
           transform="translate(45.1753,22.9053)"><path
             d="m 0,0 c 0,0 0.944,-2.754 1.259,-2.675 0.315,0.078 4.486,0.236 4.486,0.236 0,0 -0.787,-1.496 -1.023,-1.652 C 4.486,-4.249 0.394,-4.327 -0.157,-4.8 -0.708,-5.271 -2.046,-2.125 -1.889,-1.73 -1.731,-1.338 -0.629,-0.313 0,0"
             style="fill:#ffffff;fill-opacity:1;fill-rule:nonzero;stroke:none"
             id="path2046" /></g><g
           id="g2048"
           transform="translate(49.189,27.7842)"><path
             d="m 0,0 c 0,0 0.236,-0.865 0.472,-1.337 0.236,-0.473 0.787,-0.235 1.18,0 0.394,0.236 1.417,0.394 1.417,0.394 0,0 0.472,-1.417 -0.472,-1.889 -0.944,-0.473 -3.148,-1.339 -3.305,-0.865 -0.158,0.471 -0.315,2.988 -0.079,3.146 C -0.551,-0.393 -0.236,-0.313 0,0"
             style="fill:#ffffff;fill-opacity:1;fill-rule:nonzero;stroke:none"
             id="path2050" /></g><g
           id="g2052"
           transform="translate(55.8779,16.7686)"><path
             d="m 0,0 0.865,0.313 1.968,-1.574 3.069,0.946 0.472,-0.63 c 0,0 -2.676,-1.889 -3.069,-2.046 C 2.912,-3.148 0.865,-1.89 0,0"
             style="fill:#ffffff;fill-opacity:1;fill-rule:nonzero;stroke:none"
             id="path2054" /></g><g
           id="g2056"
           transform="translate(59.2617,25.1875)"><path
             d="m 0,0 -0.787,-0.865 c 0,0 1.731,-2.046 1.967,-2.046 0.237,0 1.967,1.889 1.967,1.889 V 0.237 L 2.754,0.473 1.259,-0.865 c 0,0 -0.708,0.551 -1.259,0.865"
             style="fill:#ffffff;fill-opacity:1;fill-rule:nonzero;stroke:none"
             id="path2058" /></g><g
           id="g2060"
           transform="translate(67.603,15.8232)"><path
             d="m 0,0 c 0,0 -0.708,-1.967 -0.551,-2.281 0.157,-0.316 2.676,-2.677 2.99,-2.833 0.315,-0.157 3.541,1.494 3.857,1.966 0.314,0.473 0.079,1.417 -0.158,1.574 C 5.902,-1.416 3.541,-2.99 3.305,-3.069 3.069,-3.148 0.157,-0.55 0,0"
             style="fill:#ffffff;fill-opacity:1;fill-rule:nonzero;stroke:none"
             id="path2062" /></g><g
           id="g2064"
           transform="translate(78.3838,14.1709)"><path
             d="m 0,0 v -2.675 c 0,0 3.62,-1.809 3.62,-2.126 0,-0.313 1.731,3.071 1.731,3.62 0,0.552 -0.393,2.598 -0.393,2.598 L 3.227,-1.574 c 0,0 -2.282,1.417 -3.069,1.574"
             style="fill:#ffffff;fill-opacity:1;fill-rule:nonzero;stroke:none"
             id="path2066" /></g><g
           id="g2068"
           transform="translate(85.5449,22.5908)"><path
             d="m 0,0 1.731,-1.889 c 0,0 2.046,0 2.44,-0.314 C 4.564,-2.518 4.013,0.314 4.013,0.314 L 2.754,1.023 2.361,0 C 2.361,0 0.236,0.157 0,0"
             style="fill:#ffffff;fill-opacity:1;fill-rule:nonzero;stroke:none"
             id="path2070" /></g><g
           id="g2072"
           transform="translate(88.7715,17.2402)"><path
             d="m 0,0 0.314,-2.676 c 0,0 5.509,-1.18 5.588,-1.81 0.078,-0.629 0.393,4.8 0.393,4.8 L 4.092,1.652 3.855,-0.63 C 3.855,-0.63 0.944,0 0,0"
             style="fill:#ffffff;fill-opacity:1;fill-rule:nonzero;stroke:none"
             id="path2074" /></g><g
           id="g2076"
           transform="translate(95.4019,26.6025)"><path
             d="m 0,0 -0.027,-0.433 0.271,-0.46 -0.622,-0.053 c 0,0 -0.163,-0.217 -0.136,-0.325 0.028,-0.109 -0.054,-0.297 0.758,-0.46 0.337,-0.067 0.599,-0.153 0.92,-0.189 0.453,-0.053 0.921,-0.036 1.001,0.027 C 2.3,-1.785 1.056,0.189 0,0"
             style="fill:#ffffff;fill-opacity:1;fill-rule:nonzero;stroke:none"
             id="path2078" /></g><g
           id="g2080"
           transform="translate(101.4077,22.7617)"><path
             d="m 0,0 c 0,0 -0.162,-1.001 0.054,-1.163 0.217,-0.163 0.244,-0.568 0.163,-0.649 -0.082,-0.081 -0.081,-0.19 -0.271,-0.136 -0.13,0.037 -0.697,0.284 -1.19,0.351 -0.228,0.032 -0.484,-0.072 -0.595,-0.081 -0.352,-0.027 -0.217,-0.351 -0.217,-0.351 0,0 0.466,-0.582 1.056,-1.028 0.71,-0.538 1.495,-0.99 2.353,-1.109 0.246,-0.035 0.654,-0.142 1.001,-0.189 0.585,-0.08 0.471,0.093 0.595,0.135 0.162,0.054 -0.271,1.867 -0.541,2.272 C 2.137,-1.542 0.812,-0.027 0.622,0 0.433,0.027 0,0 0,0"
             style="fill:#ffffff;fill-opacity:1;fill-rule:nonzero;stroke:none"
             id="path2082" /></g><g
           id="g2084"
           transform="translate(43.5259,180.9966)"><path
             d="m 0,0 c 0.837,0.029 3.309,-0.241 5.291,-1.81 1.982,-1.569 6.194,-5.699 7.269,-6.607 1.073,-0.909 6.855,-8.921 7.103,-9.912 0.248,-0.991 0.909,-2.395 0.495,-2.808 -0.413,-0.414 -2.394,-0.083 -2.643,0.577 -0.248,0.661 -7.847,7.104 -8.92,7.434 -1.074,0.331 -7.93,3.635 -8.921,4.13 -0.845,0.423 -4.492,2.582 -3.484,5.792 0.216,0.686 0.595,1.146 0.895,1.761 C -2.383,-0.356 -0.837,-0.029 0,0"
             style="fill:#0055a3;fill-opacity:1;fill-rule:nonzero;stroke:none"
             id="path2086" /></g><g
           id="g2088"
           transform="translate(41.9063,168.1387)"><path
             d="m 0,0 c 0,0 1.965,1.156 4.566,0.289 2.601,-0.867 6.416,-3.179 7.109,-3.583 0.694,-0.405 6.127,-4.798 7.341,-6.012 0.884,-0.884 5.491,-6.82 5.607,-7.225 0.115,-0.404 1.04,-2.716 0.288,-3.063 -0.751,-0.346 -1.329,0.405 -1.445,0.752 -0.115,0.346 -7.224,7.051 -9.421,7.744 -2.196,0.694 -3.178,1.908 -8.38,2.37 C 0.462,-8.265 -4.046,-3.583 0,0"
             style="fill:#0055a3;fill-opacity:1;fill-rule:nonzero;stroke:none"
             id="path2090" /></g><g
           id="g2092"
           transform="translate(42.542,157.2148)"><path
             d="m 0,0 c 0,0 -1.445,-1.099 -1.503,-2.775 -0.058,-1.676 0.752,-3.93 1.561,-4.739 0.809,-0.809 2.658,-1.907 3.583,-2.023 0.925,-0.116 6.301,-0.058 7.283,-0.173 0.983,-0.116 6.647,-1.908 7.283,-2.255 0.635,-0.347 5.317,-3.121 5.722,-3.583 0.404,-0.463 1.792,-1.561 2.023,-0.463 0.232,1.099 -1.503,3.815 -1.965,4.046 -0.463,0.232 -6.3,6.3 -8.554,7.745 C 13.178,-2.775 6.3,0.289 5.029,0.404 3.757,0.52 1.503,0.693 0,0"
             style="fill:#0055a3;fill-opacity:1;fill-rule:nonzero;stroke:none"
             id="path2094" /></g><g
           id="g2096"
           transform="translate(51.5586,145.6548)"><path
             d="m 0,0 c 0,0 5.896,-1.041 8.149,-1.965 1.853,-0.76 5.543,-3.578 6.763,-4.624 0.809,-0.693 2.659,-3.757 2.659,-4.219 0,-0.463 -0.115,-2.139 -2.369,-0.521 -2.255,1.619 -1.735,1.156 -2.023,1.33 C 12.889,-9.826 10,-8.323 9.306,-8.092 8.612,-7.861 6.705,-6.994 5.549,-6.82 4.393,-6.647 1.214,-6.705 0.462,-6.763 -0.289,-6.821 -3.41,-6.994 -4.046,-6.936 -4.682,-6.878 -8.15,-5.433 -6.185,-2.196 -4.219,1.04 0,0 0,0"
             style="fill:#0055a3;fill-opacity:1;fill-rule:nonzero;stroke:none"
             id="path2098" /></g><g
           id="g2100"
           transform="translate(49.8823,136.9287)"><path
             d="m 0,0 c 0,0 -2.023,-1.445 -2.023,-2.196 0,-0.752 -0.231,-1.966 0.52,-2.659 0.752,-0.694 1.676,-1.503 3.642,-1.792 1.965,-0.289 6.126,-0.058 6.82,-0.058 0.693,0 6.184,-0.52 7.051,-0.693 0.867,-0.174 2.312,-0.752 3.179,-1.041 0.867,-0.289 1.445,-0.578 1.734,-0.462 0.289,0.115 0.116,0.924 -0.347,1.156 -0.462,0.231 -4.681,3.526 -5.433,3.93 -0.751,0.405 -4.682,2.89 -5.837,3.179 C 8.15,-0.347 3.468,0.462 2.023,0.289 0.578,0.116 0.636,0.231 0,0"
             style="fill:#0055a3;fill-opacity:1;fill-rule:nonzero;stroke:none"
             id="path2102" /></g><g
           id="g2104"
           transform="translate(58.8984,128.4897)"><path
             d="m 0,0 c 0,0 -4.855,0.809 -7.051,-0.81 -2.197,-1.617 -0.636,-3.814 -0.405,-4.103 0.231,-0.289 2.983,-3.008 9.133,-2.774 6.069,0.23 9.421,1.271 10.346,2.081 0.925,0.809 1.04,1.675 -0.116,2.543 C 10.751,-2.196 7.804,-0.289 0,0"
             style="fill:#0055a3;fill-opacity:1;fill-rule:nonzero;stroke:none"
             id="path2106" /></g><g
           id="g2108"
           transform="translate(71.7881,121.0332)"><path
             d="m 0,0 c 0,0 -1.098,-0.23 -1.85,-0.635 -0.751,-0.405 -3.41,-1.272 -4.161,-1.387 -0.752,-0.116 -1.966,-0.405 -3.237,-0.348 -1.271,0.058 -4.913,0 -5.78,0.174 -0.867,0.174 -2.774,-0.231 -2.832,-1.04 -0.058,-0.809 -0.087,-3.43 2.312,-4.682 1.329,-0.694 2.758,-1.215 3.757,-1.271 0.601,-0.034 2.608,-0.076 4.682,0.462 3.121,0.809 6.589,3.699 6.878,4.046 0.289,0.346 2.523,3.223 1.734,4.451 C 0.982,0.579 0,0 0,0"
             style="fill:#0055a3;fill-opacity:1;fill-rule:nonzero;stroke:none"
             id="path2110" /></g><g
           id="g2112"
           transform="translate(73.0015,115.1396)"><path
             d="m 0,0 c 0,0 -2.196,-1.446 -2.717,-1.734 -0.519,-0.289 -2.254,-1.272 -2.889,-1.503 -0.636,-0.231 -2.485,-0.809 -3.295,-0.925 -0.809,-0.115 -3.7,-0.462 -4.335,-0.52 -0.636,-0.058 -3.005,-0.521 -3.468,-1.965 -0.462,-1.445 -0.463,-2.543 0.058,-3.295 0.521,-0.751 1.792,-2.196 4.566,-1.85 2.774,0.347 5.549,1.677 6.3,2.254 0.752,0.579 4.161,4.046 4.625,5.087 0.462,1.041 1.559,3.583 1.617,4.104 C 0.521,0.173 0.462,0 0,0"
             style="fill:#0055a3;fill-opacity:1;fill-rule:nonzero;stroke:none"
             id="path2114" /></g><g
           id="g2116"
           transform="translate(73.9263,108.7236)"><path
             d="m 0,0 c -0.578,0 -0.867,0.116 -1.445,-0.462 -0.578,-0.579 -1.329,-1.676 -1.965,-2.255 -0.636,-0.577 -1.676,-1.56 -2.658,-2.254 -0.983,-0.693 -2.486,-1.445 -3.295,-1.676 -0.809,-0.231 -4.335,-1.098 -4.913,-1.387 -0.578,-0.289 -2.312,-2.138 -2.601,-3.872 -0.29,-1.735 0.982,-3.699 2.023,-4.047 1.04,-0.347 3.005,-0.404 4.277,0.463 1.271,0.867 4.162,3.41 4.912,4.046 0.752,0.635 3.295,4.161 4.394,5.895 1.098,1.734 2.022,3.411 1.849,4.625 C 0.405,0.289 0.66,0 0,0"
             style="fill:#0055a3;fill-opacity:1;fill-rule:nonzero;stroke:none"
             id="path2118" /></g><g
           id="g2120"
           transform="translate(72.4814,99.3022)"><path
             d="M 0,0 C 0,0 -0.809,-0.578 -1.214,-1.098 -1.618,-1.619 -3.699,-3.41 -4.046,-4.104 -4.393,-4.797 -5.78,-6.011 -6.358,-6.358 -6.936,-6.705 -9.248,-8.034 -10,-8.323 c -0.751,-0.289 -3.236,-2.254 -3.409,-2.6 -0.174,-0.348 -1.619,-2.891 -0.289,-3.932 1.329,-1.04 1.965,-1.098 2.427,-1.04 0.462,0.059 2.312,0.116 3.873,1.388 1.561,1.271 4.219,4.161 4.682,5.086 0.462,0.924 2.867,4.434 3.525,8.38 C 1.098,0.693 0,0 0,0"
             style="fill:#0055a3;fill-opacity:1;fill-rule:nonzero;stroke:none"
             id="path2122" /></g><g
           id="g2124"
           transform="translate(72.5396,90.8643)"><path
             d="m 0,0 c 0,0 -1.676,-1.503 -1.965,-2.022 -0.29,-0.521 -1.329,-2.024 -1.503,-2.428 -0.174,-0.405 -1.445,-1.735 -2.023,-2.313 -0.578,-0.578 -1.619,-1.445 -2.313,-1.734 -0.693,-0.288 -3.467,-2.369 -3.698,-2.601 -0.232,-0.231 -1.445,-2.138 -1.677,-2.832 -0.231,-0.693 -0.404,-2.427 -0.057,-2.89 0.347,-0.462 1.56,-1.734 2.774,-1.618 1.214,0.116 2.601,0.578 3.41,1.098 0.81,0.52 2.197,2.023 3.468,4.45 1.272,2.428 2.717,5.145 2.948,6.243 0.231,1.098 1.329,5.375 1.272,5.837 C 0.578,-0.347 0.578,0.289 0,0"
             style="fill:#0055a3;fill-opacity:1;fill-rule:nonzero;stroke:none"
             id="path2126" /></g><g
           id="g2128"
           transform="translate(62.1934,78.3213)"><path
             d="m 0,0 -0.174,-3.236 2.255,0.231 c 0,0 0.879,0.093 1.56,0.636 0.348,0.277 0.556,0.921 0.752,1.214 0.577,0.867 -0.81,0.346 -0.81,0.346 L 1.965,-1.387 2.023,-1.155 1.965,1.041 0.867,0.983 C 0.867,0.983 0.173,0.116 0,0"
             style="fill:#ffffff;fill-opacity:1;fill-rule:nonzero;stroke:none"
             id="path2130" /></g><g
           id="g2132"
           transform="translate(66.875,81.8477)"><path
             d="m 0,0 -0.982,-1.271 c 0,0 -0.116,-1.214 0.173,-1.214 0.288,0 1.387,0.404 1.676,0.577 0.289,0.174 0.983,1.33 0.983,1.33 L 0.636,-0.752 0.693,0 Z"
             style="fill:#ffffff;fill-opacity:1;fill-rule:nonzero;stroke:none"
             id="path2134" /></g><g
           id="g2136"
           transform="translate(63.5801,89.0146)"><path
             d="m 0,0 c 0,0 -0.404,-1.733 -0.231,-1.792 0.173,-0.058 2.023,-0.115 2.023,-0.115 0,0 0.405,-0.116 0.173,-0.406 C 1.734,-2.601 0.578,-3.237 0.29,-3.294 0,-3.353 -2.427,-3.353 -2.427,-3.353 c 0,0 0.405,3.179 0.577,3.237 C -1.676,-0.058 -0.982,0.347 0,0"
             style="fill:#ffffff;fill-opacity:1;fill-rule:nonzero;stroke:none"
             id="path2138" /></g><g
           id="g2140"
           transform="translate(69.0718,93.0029)"><path
             d="m 0,0 -1.099,-1.04 c 0,0 -0.173,-1.388 0,-1.619 0.174,-0.232 0.752,0.174 1.33,0.636 0.578,0.462 0.52,1.04 0.52,1.04 L 0.057,-1.04 c 0,0 0.405,0.866 -0.057,1.04"
             style="fill:#ffffff;fill-opacity:1;fill-rule:nonzero;stroke:none"
             id="path2142" /></g><g
           id="g2144"
           transform="translate(62.0776,99.3604)"><path
             d="m 0,0 1.434,0.059 c 0,0 -0.236,-0.599 -0.553,-1.068 -0.279,-0.416 -0.385,-0.765 -0.331,-0.846 0.116,-0.174 0.549,-0.284 0.952,-0.458 0.405,-0.172 1.331,-0.346 1.561,-0.346 0.231,0 0.347,-0.173 0.347,-0.173 0,0 -1.329,-1.388 -1.56,-1.388 -0.232,0 -4.335,-0.115 -4.22,0.29 0.116,0.405 1.142,3.374 1.373,3.547 C -0.765,-0.209 -0.231,-0.23 0,0"
             style="fill:#ffffff;fill-opacity:1;fill-rule:nonzero;stroke:none"
             id="path2146" /></g><g
           id="g2148"
           transform="translate(69.2446,103.0601)"><path
             d="m 0,0 -0.578,-0.809 c 0,0 -0.809,-1.33 -0.809,-1.677 0,-0.346 0.013,-0.347 0.636,-0.347 0.404,0 1.136,0.332 1.618,0.752 0.304,0.265 0.653,0.794 0.809,1.04 0.405,0.636 -1.097,0.174 -1.097,0.174 l 0.057,0.578 c 0,0 0.231,0.462 -0.462,0.289"
             style="fill:#ffffff;fill-opacity:1;fill-rule:nonzero;stroke:none"
             id="path2150" /></g><g
           id="g2152"
           transform="translate(59.8232,108.2026)"><path
             d="m 0,0 c 0,0 -1.734,-1.792 -1.502,-2.139 0.231,-0.347 2.543,-1.329 2.832,-1.387 0.289,-0.057 0.34,-0.473 2.08,0.521 0.809,0.462 0.116,0.462 0.116,0.462 l -2.254,1.329 0.982,1.272 -0.058,0.52 c 0,0 -1.214,-0.231 -1.849,-0.578"
             style="fill:#ffffff;fill-opacity:1;fill-rule:nonzero;stroke:none"
             id="path2154" /></g><g
           id="g2156"
           transform="translate(67.3955,109.8208)"><path
             d="m 0,0 -1.639,-2.241 c 0.367,-0.417 0.45,-0.285 0.611,-0.275 0.641,0.041 1.403,-0.113 1.588,0.163 0.164,0.246 0.339,0.53 0.478,0.761 0.155,0.259 0.266,0.451 0.266,0.451 L 0.275,-1.07 0.743,-0.083 C 0.743,-0.083 0.347,0.174 0,0"
             style="fill:#ffffff;fill-opacity:1;fill-rule:nonzero;stroke:none"
             id="path2158" /></g><g
           id="g2160"
           transform="translate(56.1841,116.2837)"><path
             d="m 0,0 c 0,0 1.841,-2.762 2.688,-2.835 0.847,-0.074 2.32,0.037 2.32,0.037 l -1.509,1.546 -0.148,0.368 0.81,0.111 0.037,0.404 c 0,0 -0.737,0.995 -1.068,1.032 C 2.798,0.7 1.325,0.516 1.325,0.516 1.325,0.516 0,0.294 0,0"
             style="fill:#ffffff;fill-opacity:1;fill-rule:nonzero;stroke:none"
             id="path2162" /></g><g
           id="g2164"
           transform="translate(66.6416,117.2041)"><path
             d="m 0,0 c 0,0 -1.878,-1.325 -1.878,-1.657 0,-0.162 0.033,-0.491 0.221,-0.663 0.197,-0.18 0.551,-0.201 0.626,-0.257 0.147,-0.111 1.767,-0.221 2.099,-0.074 0.33,0.148 0.736,0.994 0.736,0.994 l -1.547,0.258 c 0,0 0.369,1.362 0.148,1.436 C 0.184,0.111 0.221,0 0,0"
             style="fill:#ffffff;fill-opacity:1;fill-rule:nonzero;stroke:none"
             id="path2166" /></g><g
           id="g2168"
           transform="translate(44.0767,178.5781)"><path
             d="m 0,0 c 0,0 -2.378,-1.09 -2.081,-1.387 0.297,-0.298 1.783,-4.063 2.279,-4.261 0.496,-0.198 3.27,-1.487 3.469,-0.991 0.197,0.495 -2.28,4.36 -2.28,4.36 0,0 1.288,0.298 1.387,0.694 0.1,0.396 0.1,0.792 -0.693,1.089 C 1.288,-0.198 1.486,-0.198 0,0"
             style="fill:#ffffff;fill-opacity:1;fill-rule:nonzero;stroke:none"
             id="path2170" /></g><g
           id="g2172"
           transform="translate(53.4897,171.3447)"><path
             d="m 0,0 c 0,0 1.982,0.495 2.378,0.099 0.396,-0.396 1.09,-1.883 1.09,-1.883 L 1.982,-1.883 2.18,-3.864 C 2.18,-3.864 0.892,-4.261 0,0"
             style="fill:#ffffff;fill-opacity:1;fill-rule:nonzero;stroke:none"
             id="path2174" /></g><g
           id="g2176"
           transform="translate(45.2656,166.0933)"><path
             d="m 0,0 c 0,0 -2.279,-0.396 -2.279,-0.694 0,-0.297 2.972,-4.062 4.063,-4.459 1.09,-0.396 2.972,-0.297 2.972,-0.297 0,0 -3.666,4.161 -3.27,4.261 0.397,0.099 1.189,0.495 1.189,0.495 0,0 -1.188,0.594 -2.675,0.694"
             style="fill:#ffffff;fill-opacity:1;fill-rule:nonzero;stroke:none"
             id="path2178" /></g><g
           id="g2180"
           transform="translate(56.4624,159.5532)"><path
             d="m 0,0 2.378,-0.297 c 0,0 -0.793,-0.495 -0.594,-0.793 0.197,-0.297 0.693,-1.387 0.693,-1.387 0,0 -1.783,0.099 -1.981,0.495 C 0.297,-1.585 -0.496,-0.595 0,0"
             style="fill:#ffffff;fill-opacity:1;fill-rule:nonzero;stroke:none"
             id="path2182" /></g><g
           id="g2184"
           transform="translate(46.4546,155.1934)"><path
             d="m 0,0 c 0,0 -2.774,-1.486 -2.378,-1.883 0.397,-0.396 3.666,-3.269 4.558,-3.468 0.892,-0.197 3.072,-0.595 3.369,-0.396 0.297,0.199 -3.369,2.973 -3.072,3.27 0.297,0.297 0.496,1.189 0.793,1.288 0.297,0.099 0.792,0 0.594,0.397 C 3.667,-0.396 1.883,0.099 0,0"
             style="fill:#ffffff;fill-opacity:1;fill-rule:nonzero;stroke:none"
             id="path2186" /></g><g
           id="g2188"
           transform="translate(57.5522,150.8335)"><path
             d="m 0,0 c 0,0 -1.783,-0.792 -1.486,-1.09 0.297,-0.297 1.982,-2.477 2.378,-2.576 0.396,-0.099 1.586,0.099 1.586,0.099 l -1.388,2.081 0.892,0.396 0.099,0.496 c 0,0 -1.09,0.693 -2.081,0.594"
             style="fill:#ffffff;fill-opacity:1;fill-rule:nonzero;stroke:none"
             id="path2190" /></g><g
           id="g2192"
           transform="translate(48.6348,143.6997)"><path
             d="m 0,0 c 0,0 -1.189,-1.388 -0.991,-1.784 0.199,-0.396 2.515,-1.783 4.558,-1.783 0.495,0 -0.191,0.588 -0.793,1.09 -0.621,0.518 -0.693,1.188 -0.693,1.188 l 1.09,0.695 c 0,0 -0.892,0.99 -2.081,0.792"
             style="fill:#ffffff;fill-opacity:1;fill-rule:nonzero;stroke:none"
             id="path2194" /></g><g
           id="g2196"
           transform="translate(60.1289,141.5195)"><path
             d="m 0,0 -1.685,-0.991 c 0,0 0.396,-1.09 1.388,-1.387 0.99,-0.297 1.387,-0.199 1.783,-0.595 0.397,-0.396 -0.694,1.684 -0.694,1.684 l 0.892,0.199 0.1,0.594 C 1.784,-0.496 0.693,0 0,0"
             style="fill:#ffffff;fill-opacity:1;fill-rule:nonzero;stroke:none"
             id="path2198" /></g><g
           id="g2200"
           transform="translate(53.3911,135.0791)"><path
             d="M 0,0 H 1.585 L 1.486,-0.595 0.297,-1.685 c 0,0 2.576,-1.189 2.774,-1.586 0.199,-0.396 -2.972,-0.396 -3.467,-0.297 -0.496,0.099 -2.973,0.892 -2.28,1.586 C -1.982,-1.289 -0.694,-0.397 0,0"
             style="fill:#ffffff;fill-opacity:1;fill-rule:nonzero;stroke:none"
             id="path2202" /></g><g
           id="g2204"
           transform="translate(61.3179,133.394)"><path
             d="m 0,0 c 0,0 1.288,-0.297 1.585,-0.495 0.298,-0.198 -0.198,-0.693 0,-0.991 0.199,-0.298 0.298,-0.792 0.496,-0.991 0.198,-0.198 -3.265,0.521 -2.973,1.982 C -0.694,0.496 -0.297,-0.099 0,0"
             style="fill:#ffffff;fill-opacity:1;fill-rule:nonzero;stroke:none"
             id="path2206" /></g><g
           id="g2208"
           transform="translate(55.2734,126.6563)"><path
             d="m 0,0 2.477,-0.595 c 0,0 -1.288,-1.188 -0.892,-1.486 0.397,-0.297 2.181,-1.387 2.28,-1.784 0.099,-0.396 -2.28,-0.494 -2.775,-0.297 -0.495,0.199 -3.666,1.586 -3.468,2.081 0.198,0.496 1.882,2.378 2.279,2.378"
             style="fill:#ffffff;fill-opacity:1;fill-rule:nonzero;stroke:none"
             id="path2210" /></g><g
           id="g2212"
           transform="translate(64.6865,125.6655)"><path
             d="M 0,0 C 0,0 -2.08,-0.694 -2.278,-1.486 -2.477,-2.279 0.199,-2.675 1.585,-2.775 2.973,-2.874 0,-1.09 0,-1.09 c 0,0 1.189,1.388 0,1.388"
             style="fill:#ffffff;fill-opacity:1;fill-rule:nonzero;stroke:none"
             id="path2214" /></g><g
           id="g2216"
           transform="translate(105.958,47.2422)"><path
             d="m 0,0 0.062,-0.979 3.552,-0.123 c 0,0 -0.735,-1.041 -1.531,-1.041 -0.796,0 -3.124,-0.183 -3.124,0 0,0.184 -1.286,1.041 1.041,2.143"
             style="fill:#ffffff;fill-opacity:1;fill-rule:nonzero;stroke:none"
             id="path2218" /></g><g
           id="g2220"
           transform="translate(121.0859,49.1416)"><path
             d="m 0,0 -1.163,-1.164 c 0,0 -0.43,-1.347 0,-1.347 0.429,0 3.123,0.367 3.123,0.367 l 1.47,0.919 H 0.735 L 0.368,0 Z"
             style="fill:#ffffff;fill-opacity:1;fill-rule:nonzero;stroke:none"
             id="path2222" /></g><g
           id="g2224"
           transform="translate(117.228,46.1406)"><path
             d="m 0,0 -1.103,-0.49 c 0,0 -0.306,-2.205 -0.123,-2.573 0.184,-0.367 2.635,0 3.185,0.123 0.552,0.123 2.696,1.103 2.696,1.409 0,0.305 -0.735,0.122 -0.735,0.122 L 0.489,-1.776 0.245,0 Z"
             style="fill:#ffffff;fill-opacity:1;fill-rule:nonzero;stroke:none"
             id="path2226" /></g><g
           id="g2228"
           transform="translate(128.1909,45.5889)"><path
             d="m 0,0 c 0,0 -1.164,-1.102 -1.103,-1.347 0.061,-0.246 0.368,-1.961 1.103,-1.961 0.735,0 3.736,1.104 3.919,1.532 0.185,0.429 -1.102,0.674 -1.102,0.674 l -2.572,-0.919 0.184,1.959 z"
             style="fill:#ffffff;fill-opacity:1;fill-rule:nonzero;stroke:none"
             id="path2230" /></g><g
           id="g2232"
           transform="translate(132.2944,48.5898)"><path
             d="m 0,0 c -0.184,0 -0.735,-0.122 -0.735,-0.122 0,0 -1.225,-1.715 -1.102,-2.022 0.122,-0.305 1.96,-0.122 2.45,0 0.244,0.062 0.933,0.338 1.346,0.736 0.414,0.398 0.552,0.919 0.552,0.919 H 1.593 L -0.184,-1.163 0.184,0"
             style="fill:#ffffff;fill-opacity:1;fill-rule:nonzero;stroke:none"
             id="path2234" /></g><g
           id="g2236"
           transform="translate(146.5688,44.3643)"><path
             d="m 0,0 0.061,-1.653 3.307,-1.715 c 0,0 1.592,0.918 2.021,2.879 C 5.818,1.47 4.471,0.919 4.471,0.919 l -1.103,-1.96 c 0,0 -3.001,0.98 -3.368,1.041"
             style="fill:#ffffff;fill-opacity:1;fill-rule:nonzero;stroke:none"
             id="path2238" /></g><g
           id="g2240"
           transform="translate(147.4878,47.9775)"><path
             d="m 0,0 -0.246,-1.408 c 0,0 2.083,-1.593 2.634,-1.348 0.551,0.245 0.919,2.205 0.919,2.205 L 2.878,0.062 c 0,0 -0.551,-1.165 -0.919,-1.225 C 1.592,-1.225 0.184,-0.061 0,0"
             style="fill:#ffffff;fill-opacity:1;fill-rule:nonzero;stroke:none"
             id="path2242" /></g><g
           id="g2244"
           transform="translate(156.4907,46.3857)"><path
             d="M 0,0 C 0,0 1.837,-1.409 2.204,-0.919 2.572,-0.429 2.39,0.429 0.122,0.429 -0.673,0.429 0,0 0,0"
             style="fill:#ffffff;fill-opacity:1;fill-rule:nonzero;stroke:none"
             id="path2246" /></g><g
           id="g2248"
           transform="translate(157.8384,44.0586)"><path
             d="m 0,0 1.408,-0.307 c 0,0 1.531,-0.612 1.838,-0.245 0.306,0.368 0.49,0.919 0.49,0.919 L 4.594,-0.552 5.021,-2.695 3.98,-2.817 c 0,0 -5.083,2.02 -3.98,2.817"
             style="fill:#ffffff;fill-opacity:1;fill-rule:nonzero;stroke:none"
             id="path2250" /></g><g
           id="g2252"
           transform="translate(168.6787,43.875)"><path
             d="m 0,0 c 0,0 -0.154,-0.454 0.123,-0.675 0.522,-0.417 1.863,-0.856 2.143,-0.856 0.429,0 2.45,0 2.694,0.121 C 5.207,-1.287 4.226,-0.185 3.368,0.184 2.512,0.551 2.266,0.489 2.266,0.489 L 2.327,0.061 2.634,-0.368 C 2.634,-0.368 0.49,0.184 0,0"
             style="fill:#ffffff;fill-opacity:1;fill-rule:nonzero;stroke:none"
             id="path2254" /></g><g
           id="g2256"
           transform="translate(178.4155,45.8955)"><path
             d="M 0,0 C 0,0 2.082,-1.592 2.572,-1.653 3.063,-1.716 7.104,-1.715 7.471,-1.531 7.839,-1.348 5.94,0.612 5.389,0.857 4.837,1.103 3.736,1.286 3.858,1.041 3.981,0.796 4.654,0.307 4.409,0.245 4.165,0.184 0.734,0.123 0,0"
             style="fill:#ffffff;fill-opacity:1;fill-rule:nonzero;stroke:none"
             id="path2258" /></g><g
           id="g2260"
           transform="translate(198.9941,47.6104)"><path
             d="m 0,0 c 0,0 2.632,-0.061 2.939,-1.103 0.307,-1.041 0.062,-1.224 0.062,-1.224 0,0 -1.012,-0.236 -2.328,-0.184 -1.357,0.054 -3.026,0.398 -3.43,0.428 -0.795,0.062 -0.061,0.735 -0.061,0.735 0,0 2.389,0 2.634,0.123 C 0.061,-1.103 -0.245,-0.552 0,0"
             style="fill:#ffffff;fill-opacity:1;fill-rule:nonzero;stroke:none"
             id="path2262" /></g><g
           id="g2264"
           transform="translate(143.1377,51.4688)"><path
             d="m 0,0 c 0,0 -2.756,-1.103 -3.063,-1.225 -0.305,-0.123 -1.714,-1.347 -1.96,-1.592 -0.244,-0.246 -2.143,-2.634 -2.204,-2.941 -0.062,-0.305 -0.673,-2.571 -0.673,-3.49 0,-0.919 1.04,-2.205 1.592,-2.327 0.551,-0.123 1.592,-0.185 2.388,0 0.796,0.183 3.369,2.387 3.676,3.306 0.305,0.919 1.101,4.227 0.979,5.758 C 0.612,-0.98 0.551,0.062 0,0"
             style="fill:#0055a3;fill-opacity:1;fill-rule:nonzero;stroke:none"
             id="path2266" /></g><g
           id="g2268"
           transform="translate(140.0117,47.3047)"><path
             d="m 0,0 -0.735,-0.185 v -2.082 c 0,0 0.919,-0.061 1.286,0.306 0.367,0.367 1.959,2.145 1.959,2.145 L 1.469,-0.123 0.123,-0.797 c 0,0 0.244,0.551 -0.123,0.797"
             style="fill:#ffffff;fill-opacity:1;fill-rule:nonzero;stroke:none"
             id="path2270" /></g><g
           id="g2272"
           transform="translate(137.6841,44.1807)"><path
             d="m 0,0 -0.551,-0.062 -0.307,-1.163 c 0,0 0.612,-2.083 1.041,-2.021 0.429,0.061 2.634,1.163 3.185,1.838 C 3.92,-0.735 4.042,0.184 2.94,-0.368 1.837,-0.919 1.286,-1.47 1.041,-1.47 0.796,-1.47 0.735,-0.429 0,0"
             style="fill:#ffffff;fill-opacity:1;fill-rule:nonzero;stroke:none"
             id="path2274" /></g><g
           id="g2276"
           transform="translate(562.3652,169.104)"><path
             d="M 0,0 H 16.49 V 10.716 H -29.366 V 0 h 16.49 V -50.011 H 0 Z m -36.347,10.716 h -12.877 v -60.727 h 12.877 z m -37.757,0 v -37.092 c 0,-4.708 -0.95,-8.162 -2.846,-10.364 -1.897,-2.201 -4.95,-3.302 -9.158,-3.302 -4.349,0 -7.464,1.094 -9.346,3.282 -1.884,2.187 -2.825,5.621 -2.825,10.301 v 37.175 h -12.835 v -39.127 c 0,-6.951 2.16,-12.427 6.48,-16.428 4.32,-4.002 10.384,-6.002 18.193,-6.002 5.177,0 9.664,0.9 13.458,2.699 3.794,1.8 6.694,4.389 8.702,7.768 2.007,3.378 3.011,7.311 3.011,11.796 v 39.294 z m -43.385,-60.727 v 10.634 h -24.631 v 50.093 h -12.877 v -60.727 z m -80.906,25.255 c 4.32,13.984 6.937,22.748 7.85,26.293 0.222,-0.997 0.588,-2.354 1.101,-4.071 0.512,-1.717 2.804,-9.124 6.875,-22.222 z m 37.175,-25.255 -21.515,60.977 h -15.744 l -21.432,-60.977 h 13.873 l 4.403,14.455 h 22.139 l 4.403,-14.455 z m -64.904,60.727 h -12.877 v -60.727 h 12.877 z m -43.597,-36.137 c -1.773,-6.37 -2.812,-10.827 -3.115,-13.375 -0.167,1.108 -0.59,3.081 -1.268,5.92 -0.679,2.837 -1.336,5.322 -1.973,7.455 L -287.5,10.716 h -13 l 20.602,-60.727 h 14.039 l 20.644,60.727 h -13.001 z m -49.609,36.137 v -37.092 c 0,-4.708 -0.948,-8.162 -2.845,-10.364 -1.897,-2.201 -4.95,-3.302 -9.159,-3.302 -4.347,0 -7.462,1.094 -9.346,3.282 -1.883,2.187 -2.824,5.621 -2.824,10.301 v 37.175 h -12.835 v -39.127 c 0,-6.951 2.16,-12.427 6.48,-16.428 4.32,-4.002 10.384,-6.002 18.193,-6.002 5.178,0 9.664,0.9 13.458,2.699 3.794,1.8 6.694,4.389 8.702,7.768 2.007,3.378 3.011,7.311 3.011,11.796 v 39.294 z m -49.055,0 h -11.589 v -28.743 c 0,-3.268 0.208,-8.848 0.623,-16.74 h -0.29 l -26.377,45.483 h -16.24 v -60.727 h 11.505 v 28.578 c 0,3.461 -0.263,9.248 -0.789,17.362 h 0.374 l 26.418,-45.94 h 16.365 z m -66.233,0 h -12.876 v -60.727 h 12.876 z"
             style="fill:#0055a3;fill-opacity:1;fill-rule:nonzero;stroke:none"
             id="path2278" /></g><g
           id="g2280"
           transform="translate(578.8555,107.4512)"><path
             d="m 0,0 h -3.472 v -12.068 c 0,-0.852 0.033,-2.036 0.095,-3.553 0.064,-1.519 0.106,-2.399 0.127,-2.64 H -3.345 L -14.713,0 h -4.598 v -23.034 h 3.441 v 11.973 c 0,1.618 -0.074,3.404 -0.222,5.357 l -0.079,1.025 h 0.126 l 11.4,-18.355 H 0 Z m -43.543,-5.058 c 1.158,1.46 2.873,2.19 5.146,2.19 2.251,0 3.945,-0.73 5.081,-2.19 1.136,-1.459 1.704,-3.602 1.704,-6.427 0,-2.868 -0.574,-5.027 -1.72,-6.476 -1.147,-1.449 -2.846,-2.174 -5.097,-2.174 -2.262,0 -3.969,0.732 -5.121,2.198 -1.152,1.465 -1.728,3.615 -1.728,6.452 0,2.825 0.579,4.968 1.735,6.427 m 13.136,2.316 c -1.881,2.07 -4.545,3.105 -7.99,3.105 -3.499,0 -6.192,-1.019 -8.079,-3.057 -1.886,-2.038 -2.83,-4.958 -2.83,-8.76 0,-3.803 0.939,-6.735 2.815,-8.8 1.876,-2.063 4.563,-3.096 8.062,-3.096 3.456,0 6.127,1.04 8.014,3.121 1.888,2.079 2.831,4.994 2.831,8.744 0,3.76 -0.941,6.674 -2.823,8.743 M -57.667,0 h -3.79 v -23.034 h 3.79 z m -17.682,-3.229 h 6.818 V 0 h -17.424 v -3.229 h 6.817 v -19.805 h 3.789 z m -26.7,-10.163 2.093,6.003 c 0.55,1.534 0.968,2.946 1.253,4.238 0.105,-0.42 0.298,-1.082 0.578,-1.985 0.28,-0.904 0.5,-1.566 0.658,-1.986 l 2.172,-6.27 z m 14.095,-9.642 -8.673,23.129 h -4.122 l -8.673,-23.129 h 3.996 l 2.268,6.396 h 8.862 l 2.315,-6.396 z m -36.894,9.201 5.55,-9.201 h 4.312 l -6.548,10.193 c 3.002,1.219 4.503,3.262 4.503,6.13 0,2.247 -0.719,3.927 -2.157,5.041 -1.437,1.113 -3.651,1.67 -6.642,1.67 h -6.549 v -23.034 h 3.79 v 9.201 z m -3.741,10.65 h 2.505 c 1.723,0 3.013,-0.283 3.868,-0.85 0.857,-0.568 1.284,-1.503 1.284,-2.804 0,-1.283 -0.395,-2.249 -1.189,-2.9 -0.792,-0.651 -2.071,-0.977 -3.836,-0.977 h -2.632 z m -28.021,-1.875 c 1.158,1.46 2.873,2.19 5.144,2.19 2.252,0 3.945,-0.73 5.082,-2.19 1.136,-1.459 1.704,-3.602 1.704,-6.427 0,-2.868 -0.573,-5.027 -1.719,-6.476 -1.148,-1.449 -2.846,-2.174 -5.098,-2.174 -2.262,0 -3.969,0.732 -5.121,2.198 -1.153,1.465 -1.728,3.615 -1.728,6.452 0,2.825 0.578,4.968 1.736,6.427 m 13.135,2.316 c -1.88,2.07 -4.545,3.105 -7.991,3.105 -3.498,0 -6.19,-1.019 -8.077,-3.057 -1.887,-2.038 -2.83,-4.958 -2.83,-8.76 0,-3.803 0.937,-6.735 2.813,-8.8 1.877,-2.063 4.565,-3.096 8.063,-3.096 3.457,0 6.128,1.04 8.015,3.121 1.886,2.079 2.83,4.994 2.83,8.744 0,3.76 -0.942,6.674 -2.823,8.743 m -37.396,-0.409 h 2.632 c 1.722,0 2.991,-0.326 3.805,-0.977 0.814,-0.651 1.221,-1.638 1.221,-2.962 0,-1.429 -0.455,-2.479 -1.363,-3.151 -0.909,-0.672 -2.336,-1.008 -4.281,-1.008 h -2.014 z m 9.394,1.386 C -172.92,-0.588 -175.089,0 -177.985,0 h -6.675 v -23.034 h 3.789 v 8.618 h 2.41 c 2.928,0 5.185,0.641 6.77,1.922 1.586,1.281 2.379,3.125 2.379,5.53 0,2.29 -0.722,4.023 -2.165,5.199 m -30.033,-12.068 5.549,-9.201 h 4.313 l -6.548,10.193 c 3.002,1.219 4.503,3.262 4.503,6.13 0,2.247 -0.719,3.927 -2.157,5.041 -1.437,1.113 -3.652,1.67 -6.642,1.67 h -6.548 v -23.034 h 3.789 v 9.201 z m -3.741,10.65 h 2.505 c 1.723,0 3.012,-0.283 3.868,-0.85 0.857,-0.568 1.284,-1.503 1.284,-2.804 0,-1.283 -0.396,-2.249 -1.188,-2.9 -0.794,-0.651 -2.072,-0.977 -3.837,-0.977 h -2.632 z m -28.021,-1.875 c 1.157,1.46 2.872,2.19 5.145,2.19 2.251,0 3.944,-0.73 5.081,-2.19 1.136,-1.459 1.704,-3.602 1.704,-6.427 0,-2.868 -0.573,-5.027 -1.72,-6.476 -1.147,-1.449 -2.846,-2.174 -5.097,-2.174 -2.262,0 -3.97,0.732 -5.121,2.198 -1.153,1.465 -1.729,3.615 -1.729,6.452 0,2.825 0.579,4.968 1.737,6.427 m 13.135,2.316 c -1.882,2.07 -4.545,3.105 -7.99,3.105 -3.499,0 -6.191,-1.019 -8.078,-3.057 -1.887,-2.038 -2.83,-4.958 -2.83,-8.76 0,-3.803 0.937,-6.735 2.814,-8.8 1.875,-2.063 4.563,-3.096 8.062,-3.096 3.456,0 6.128,1.04 8.014,3.121 1.886,2.079 2.83,4.994 2.83,8.744 0,3.76 -0.941,6.674 -2.822,8.743 m -28.26,-0.574 c 0.873,-0.279 1.699,-0.602 2.482,-0.97 l 1.363,3.136 c -2.009,0.987 -4.196,1.481 -6.563,1.481 -2.252,0 -4.213,-0.478 -5.883,-1.434 -1.67,-0.956 -2.946,-2.332 -3.829,-4.128 -0.883,-1.796 -1.324,-3.891 -1.324,-6.286 0,-3.802 0.91,-6.725 2.727,-8.768 1.818,-2.043 4.423,-3.065 7.817,-3.065 2.303,0 4.365,0.342 6.183,1.025 v 3.229 c -0.994,-0.304 -1.95,-0.553 -2.87,-0.748 -0.92,-0.194 -1.871,-0.291 -2.853,-0.291 -2.273,0 -4.009,0.725 -5.208,2.174 -1.201,1.449 -1.8,3.587 -1.8,6.412 0,2.699 0.623,4.816 1.87,6.35 1.248,1.533 2.96,2.3 5.138,2.3 0.961,0 1.878,-0.139 2.75,-0.417 m -32.835,-19.718 v 3.229 h -9.814 V 0 h -3.789 v -23.034 z m -34.56,9.642 2.092,6.003 c 0.55,1.534 0.968,2.946 1.253,4.238 0.105,-0.42 0.299,-1.082 0.579,-1.985 0.28,-0.904 0.499,-1.566 0.658,-1.986 l 2.172,-6.27 z m 14.094,-9.642 -8.672,23.129 h -4.122 l -8.673,-23.129 h 3.996 l 2.267,6.396 h 8.862 l 2.315,-6.396 z M -330.007,0 h -3.472 v -12.068 c 0,-0.852 0.031,-2.036 0.095,-3.553 0.063,-1.519 0.105,-2.399 0.126,-2.64 h -0.095 L -344.721,0 h -4.597 v -23.034 h 3.441 v 11.973 c 0,1.618 -0.075,3.404 -0.223,5.357 l -0.079,1.025 h 0.127 l 11.399,-18.355 h 4.646 z m -43.543,-5.058 c 1.157,1.46 2.872,2.19 5.145,2.19 2.251,0 3.945,-0.73 5.081,-2.19 1.136,-1.459 1.705,-3.602 1.705,-6.427 0,-2.868 -0.574,-5.027 -1.72,-6.476 -1.147,-1.449 -2.847,-2.174 -5.098,-2.174 -2.262,0 -3.969,0.732 -5.121,2.198 -1.152,1.465 -1.728,3.615 -1.728,6.452 0,2.825 0.578,4.968 1.736,6.427 m 13.136,2.316 c -1.882,2.07 -4.546,3.105 -7.991,3.105 -3.499,0 -6.192,-1.019 -8.078,-3.057 -1.887,-2.038 -2.83,-4.958 -2.83,-8.76 0,-3.803 0.938,-6.735 2.814,-8.8 1.876,-2.063 4.563,-3.096 8.062,-3.096 3.457,0 6.128,1.04 8.015,3.121 1.886,2.079 2.83,4.994 2.83,8.744 0,3.76 -0.941,6.674 -2.822,8.743 M -387.675,0 h -3.789 v -23.034 h 3.789 z m -21.29,-13.771 h 4.804 v -5.939 c -1.396,-0.305 -2.706,-0.457 -3.932,-0.457 -2.431,0 -4.294,0.732 -5.589,2.198 -1.295,1.465 -1.942,3.606 -1.942,6.42 0,2.679 0.719,4.79 2.156,6.334 1.438,1.544 3.393,2.316 5.866,2.316 1.882,0 3.763,-0.431 5.645,-1.292 l 1.332,3.136 c -2.167,0.924 -4.461,1.386 -6.882,1.386 -3.763,0 -6.717,-1.048 -8.862,-3.144 -2.146,-2.095 -3.218,-4.997 -3.218,-8.704 0,-3.76 0.951,-6.672 2.853,-8.737 1.903,-2.063 4.609,-3.096 8.118,-3.096 1.49,0 2.878,0.095 4.162,0.285 1.284,0.188 2.623,0.508 4.018,0.961 v 11.564 h -8.529 z m -17.527,-6.065 h -9.323 v 7.232 h 8.736 v 3.151 h -8.736 v 6.27 h 9.323 V 0 h -13.112 v -23.034 h 13.112 z m -29.962,6.003 5.549,-9.201 h 4.313 l -6.548,10.193 c 3.001,1.219 4.503,3.262 4.503,6.13 0,2.247 -0.719,3.927 -2.156,5.041 -1.438,1.113 -3.652,1.67 -6.644,1.67 h -6.547 v -23.034 h 3.789 v 9.201 z m -3.741,10.65 h 2.505 c 1.722,0 3.012,-0.283 3.868,-0.85 0.856,-0.568 1.284,-1.503 1.284,-2.804 0,-1.283 -0.396,-2.249 -1.189,-2.9 -0.792,-0.651 -2.071,-0.977 -3.836,-0.977 h -2.632 z"
             style="fill:#666867;fill-opacity:1;fill-rule:nonzero;stroke:none"
             id="path2282" /></g></g></g></g></svg>
