<?xml version="1.0" encoding="UTF-8" standalone="no"?>
<!-- Generator: Adobe Illustrator 25.4.1, SVG Export Plug-In . SVG Version: 6.00 Build 0)  -->

<svg
   version="1.1"
   x="0px"
   y="0px"
   viewBox="0 0 765.35435 190.10002"
   xml:space="preserve"
   id="svg154"
   sodipodi:docname="02-cfi.svg"
   inkscape:version="1.1.2 (b8e25be833, 2022-02-05)"
   inkscape:export-filename="C:\Users\cpritchard\OneDrive\OneDrive - Inuvialuit Regional Corporation\projects\ccadi\catalog.inuvialuit.com\catalog\assets\images\brands\02-cfi.png"
   inkscape:export-xdpi="600"
   inkscape:export-ydpi="600"
   width="20.25cm"
   height="5.0297298cm"
   xmlns:inkscape="http://www.inkscape.org/namespaces/inkscape"
   xmlns:sodipodi="http://sodipodi.sourceforge.net/DTD/sodipodi-0.dtd"
   xmlns="http://www.w3.org/2000/svg"
   xmlns:svg="http://www.w3.org/2000/svg"><defs
   id="defs158" /><sodipodi:namedview
   id="namedview156"
   pagecolor="#ffffff"
   bordercolor="#666666"
   borderopacity="1.0"
   inkscape:pageshadow="2"
   inkscape:pageopacity="0.0"
   inkscape:pagecheckerboard="0"
   showgrid="false"
   inkscape:zoom="1.3837301"
   inkscape:cx="382.29999"
   inkscape:cy="95.032984"
   inkscape:window-width="1271"
   inkscape:window-height="1040"
   inkscape:window-x="156"
   inkscape:window-y="0"
   inkscape:window-maximized="0"
   inkscape:current-layer="svg154"
   units="cm"
   width="3cm"
   inkscape:document-units="cm" />
<style
   type="text/css"
   id="style2">
	.st0{fill:#FFFFFF;}
</style>
<path
   class="st0"
   d="M 4.4,19.6 V 98.9 H 24.8 V 8.4 h -9.3 c -6.1,0 -11.1,5 -11.1,11.2 0,0 0,0 0,0 z"
   id="path4"
   style="fill:#000000;fill-opacity:1"
   inkscape:export-filename="C:\Users\cpritchard\OneDrive\OneDrive - Inuvialuit Regional Corporation\projects\ccadi\catalog.inuvialuit.com\catalog\assets\images\brands\02-cfi.png"
   inkscape:export-xdpi="150"
   inkscape:export-ydpi="150" />
<path
   class="st0"
   d="M 96.6,19.4 V 62.8 L 55.8,8.6 55.7,8.5 H 37.2 v 90.4 h 20 V 42.6 l 42.1,56.1 0.1,0.2 h 17.1 V 8.4 h -9 c -6,0 -10.9,5 -10.9,11 z"
   id="path6"
   style="fill:#000000;fill-opacity:1"
   inkscape:export-filename="C:\Users\cpritchard\OneDrive\OneDrive - Inuvialuit Regional Corporation\projects\ccadi\catalog.inuvialuit.com\catalog\assets\images\brands\02-cfi.png"
   inkscape:export-xdpi="150"
   inkscape:export-ydpi="150" />
<path
   class="st0"
   d="M 207.3,26.6 V 8.4 H 199 c -6.5,0 -11.7,5.2 -11.7,11.7 0,0 0,0 0,0 V 62.9 L 146.6,8.6 146.5,8.5 H 128 v 90.4 h 20 V 42.6 l 42,56.1 0.1,0.2 h 17.1 V 82.1 c -8.3,-17.5 -8.3,-37.9 0.1,-55.5 z"
   id="path8"
   style="fill:#000000;fill-opacity:1"
   inkscape:export-filename="C:\Users\cpritchard\OneDrive\OneDrive - Inuvialuit Regional Corporation\projects\ccadi\catalog.inuvialuit.com\catalog\assets\images\brands\02-cfi.png"
   inkscape:export-xdpi="150"
   inkscape:export-ydpi="150" />
<path
   class="st0"
   d="m 403.9,8.4 h -22 L 358.8,70.8 335.7,8.4 h -22.5 l 1.3,3.2 c 9.8,11.2 15.5,25.4 16.1,40.2 l 19,47.7 h 17.9 L 403.6,9 Z"
   id="path10"
   style="fill:#000000;fill-opacity:1"
   inkscape:export-filename="C:\Users\cpritchard\OneDrive\OneDrive - Inuvialuit Regional Corporation\projects\ccadi\catalog.inuvialuit.com\catalog\assets\images\brands\02-cfi.png"
   inkscape:export-xdpi="150"
   inkscape:export-ydpi="150" />
<path
   class="st0"
   d="m 440.4,7.8 h -18.6 l -38.4,90.5 -0.2,0.5 h 20.9 l 8.2,-20.1 h 37.2 l 8.1,19.9 0.1,0.2 H 479 L 440.5,8 Z m -20.8,52.8 11.3,-27.7 11.3,27.7 z"
   id="path12"
   style="fill:#000000;fill-opacity:1"
   inkscape:export-filename="C:\Users\cpritchard\OneDrive\OneDrive - Inuvialuit Regional Corporation\projects\ccadi\catalog.inuvialuit.com\catalog\assets\images\brands\02-cfi.png"
   inkscape:export-xdpi="150"
   inkscape:export-ydpi="150" />
<path
   class="st0"
   d="m 461,16 c 0,6.4 5.2,11.6 11.6,11.6 h 15.5 v 71.5 h 20.4 V 27.7 h 27.2 V 8.7 H 461 Z"
   id="path14"
   style="fill:#000000;fill-opacity:1"
   inkscape:export-filename="C:\Users\cpritchard\OneDrive\OneDrive - Inuvialuit Regional Corporation\projects\ccadi\catalog.inuvialuit.com\catalog\assets\images\brands\02-cfi.png"
   inkscape:export-xdpi="150"
   inkscape:export-ydpi="150" />
<path
   class="st0"
   d="m 553.6,8.4 h -8.9 v 90.4 h 20.4 V 20 C 565.2,13.6 560,8.5 553.6,8.4 c 0,0 0,0 0,0 z"
   id="path16"
   style="fill:#000000;fill-opacity:1"
   inkscape:export-filename="C:\Users\cpritchard\OneDrive\OneDrive - Inuvialuit Regional Corporation\projects\ccadi\catalog.inuvialuit.com\catalog\assets\images\brands\02-cfi.png"
   inkscape:export-xdpi="150"
   inkscape:export-ydpi="150" />
<path
   class="st0"
   d="m 625.2,6.9 c -26.9,0 -48,20.5 -48,46.8 v 0.2 c 0,26.5 20.5,46.5 47.7,46.5 26.9,0 48,-20.5 48,-46.8 V 53.3 C 672.9,26.9 652.4,6.9 625.2,6.9 Z m 26.4,47 c 0,15.7 -11.3,27.5 -26.4,27.5 -15.2,0 -26.7,-11.9 -26.7,-27.8 v -0.3 c 0,-15.7 11.3,-27.5 26.4,-27.5 15.2,0 26.7,11.9 26.7,27.8 z"
   id="path18"
   style="fill:#000000;fill-opacity:1"
   inkscape:export-filename="C:\Users\cpritchard\OneDrive\OneDrive - Inuvialuit Regional Corporation\projects\ccadi\catalog.inuvialuit.com\catalog\assets\images\brands\02-cfi.png"
   inkscape:export-xdpi="150"
   inkscape:export-ydpi="150" />
<path
   class="st0"
   d="m 748.4,8.4 h -9 V 62.8 L 698.7,8.6 698.6,8.5 H 680 v 90.4 h 20 V 42.6 l 42.1,56.1 0.1,0.2 h 17.1 V 19.4 c 0.1,-6.1 -4.8,-11 -10.9,-11 z"
   id="path20"
   style="fill:#000000;fill-opacity:1"
   inkscape:export-filename="C:\Users\cpritchard\OneDrive\OneDrive - Inuvialuit Regional Corporation\projects\ccadi\catalog.inuvialuit.com\catalog\assets\images\brands\02-cfi.png"
   inkscape:export-xdpi="150"
   inkscape:export-ydpi="150" />
<path
   class="st0"
   d="m 4.1,136.1 v 0 c -0.1,-7 5.4,-12.7 12.3,-12.8 0.2,0 0.4,0 0.6,0 3.6,-0.2 7.2,1.2 9.7,3.8 l -3.5,4 c -1.7,-1.7 -3.9,-2.7 -6.3,-2.8 -4.2,0 -7.1,3.5 -7.1,7.7 v 0 c 0,4.2 2.9,7.7 7.1,7.7 2.8,0 4.5,-1.1 6.5,-2.9 l 3.4,3.5 c -2.5,2.9 -6.2,4.6 -10.1,4.4 -6.9,0.1 -12.5,-5.4 -12.6,-12.2 0,-0.1 0,-0.3 0,-0.4 z"
   id="path22"
   style="fill:#000000;fill-opacity:1"
   inkscape:export-filename="C:\Users\cpritchard\OneDrive\OneDrive - Inuvialuit Regional Corporation\projects\ccadi\catalog.inuvialuit.com\catalog\assets\images\brands\02-cfi.png"
   inkscape:export-xdpi="150"
   inkscape:export-ydpi="150" />
<path
   class="st0"
   d="m 28.5,142.9 v 0 c 0,-4.2 3.1,-6.1 7.6,-6.1 1.6,0 3.1,0.2 4.6,0.8 v -0.3 c 0,-2.2 -1.4,-3.4 -4,-3.4 -1.8,0 -3.6,0.3 -5.2,1 l -1.3,-4.1 c 2.3,-1 4.8,-1.6 7.3,-1.5 2.9,0 5,0.8 6.4,2.1 1.4,1.7 2.2,3.8 2,6 v 10.9 h -5.2 v -2 c -1.4,1.6 -3.5,2.5 -5.7,2.4 -3.5,0 -6.5,-2.1 -6.5,-5.8 z m 12.3,-1.2 v -1 c -1.1,-0.5 -2.2,-0.7 -3.4,-0.7 -2.3,0 -3.7,0.9 -3.7,2.6 v 0.1 c 0,1.5 1.2,2.3 2.9,2.3 2.5,0 4.2,-1.4 4.2,-3.3 z"
   id="path24"
   style="fill:#000000;fill-opacity:1"
   inkscape:export-filename="C:\Users\cpritchard\OneDrive\OneDrive - Inuvialuit Regional Corporation\projects\ccadi\catalog.inuvialuit.com\catalog\assets\images\brands\02-cfi.png"
   inkscape:export-xdpi="150"
   inkscape:export-ydpi="150" />
<path
   class="st0"
   d="M 49.6,129.5 H 55 v 2.7 c 1.2,-1.9 3.3,-3 5.5,-3 4,0 6.4,2.7 6.4,7 v 12.2 h -5.4 v -10.5 c 0,-2.5 -1.2,-3.8 -3.2,-3.8 -2,0 -3.3,1.3 -3.3,3.8 v 10.5 h -5.4 z"
   id="path26"
   style="fill:#000000;fill-opacity:1"
   inkscape:export-filename="C:\Users\cpritchard\OneDrive\OneDrive - Inuvialuit Regional Corporation\projects\ccadi\catalog.inuvialuit.com\catalog\assets\images\brands\02-cfi.png"
   inkscape:export-xdpi="150"
   inkscape:export-ydpi="150" />
<path
   class="st0"
   d="m 69.5,142.9 v 0 c 0,-4.2 3.1,-6.1 7.6,-6.1 1.6,0 3.1,0.2 4.6,0.8 v -0.3 c 0,-2.2 -1.4,-3.4 -4,-3.4 -1.8,0 -3.6,0.3 -5.2,1 l -1.3,-4.1 c 2.3,-1 4.8,-1.6 7.3,-1.5 2.9,0 5,0.8 6.4,2.1 1.4,1.7 2.2,3.8 2,6 v 10.9 h -5.2 v -2 c -1.5,1.6 -3.5,2.5 -5.7,2.4 -3.6,0 -6.5,-2.1 -6.5,-5.8 z m 12.3,-1.2 v -1 c -1.1,-0.5 -2.2,-0.7 -3.4,-0.7 -2.3,0 -3.7,0.9 -3.7,2.6 v 0.1 c 0,1.5 1.2,2.3 2.9,2.3 2.5,0 4.2,-1.4 4.2,-3.3 z"
   id="path28"
   style="fill:#000000;fill-opacity:1"
   inkscape:export-filename="C:\Users\cpritchard\OneDrive\OneDrive - Inuvialuit Regional Corporation\projects\ccadi\catalog.inuvialuit.com\catalog\assets\images\brands\02-cfi.png"
   inkscape:export-xdpi="150"
   inkscape:export-ydpi="150" />
<path
   class="st0"
   d="m 89.8,138.9 v 0 c 0,-6.4 4.1,-9.8 8.6,-9.8 2.3,0 4.5,1 5.9,2.8 v -9.3 h 5.4 v 25.7 h -5.4 v -2.7 c -1.3,2 -3.5,3.1 -5.9,3.1 -4.5,0 -8.6,-3.5 -8.6,-9.8 z m 14.5,0 v 0 c 0,-3.2 -2.1,-5.3 -4.6,-5.3 -2.5,0 -4.6,2 -4.6,5.2 v 0.1 c 0,3.1 2.1,5.2 4.6,5.2 2.5,0 4.6,-2 4.6,-5.2 z"
   id="path30"
   style="fill:#000000;fill-opacity:1"
   inkscape:export-filename="C:\Users\cpritchard\OneDrive\OneDrive - Inuvialuit Regional Corporation\projects\ccadi\catalog.inuvialuit.com\catalog\assets\images\brands\02-cfi.png"
   inkscape:export-xdpi="150"
   inkscape:export-ydpi="150" />
<path
   class="st0"
   d="m 112.3,142.9 v 0 c 0,-4.2 3.1,-6.1 7.6,-6.1 1.6,0 3.1,0.2 4.6,0.8 v -0.3 c 0,-2.2 -1.4,-3.4 -4,-3.4 -1.8,0 -3.6,0.3 -5.2,1 l -1.3,-4.1 c 2.3,-1 4.8,-1.6 7.3,-1.5 2.9,0 5,0.8 6.4,2.1 1.4,1.7 2.2,3.8 2,6 v 10.9 h -5.2 v -2 c -1.4,1.6 -3.5,2.5 -5.7,2.4 -3.6,0 -6.5,-2.1 -6.5,-5.8 z m 12.3,-1.2 v -1 c -1.1,-0.5 -2.2,-0.7 -3.4,-0.7 -2.3,0 -3.7,0.9 -3.7,2.6 v 0.1 c 0,1.5 1.2,2.3 2.9,2.3 2.5,0 4.2,-1.4 4.2,-3.3 z"
   id="path32"
   style="fill:#000000;fill-opacity:1"
   inkscape:export-filename="C:\Users\cpritchard\OneDrive\OneDrive - Inuvialuit Regional Corporation\projects\ccadi\catalog.inuvialuit.com\catalog\assets\images\brands\02-cfi.png"
   inkscape:export-xdpi="150"
   inkscape:export-ydpi="150" />
<path
   class="st0"
   d="m 143.6,123.7 h 18.8 v 4.9 h -13.3 v 5.2 h 11.8 v 4.9 h -11.8 v 9.5 h -5.4 v -24.5 z"
   id="path34"
   style="fill:#000000;fill-opacity:1"
   inkscape:export-filename="C:\Users\cpritchard\OneDrive\OneDrive - Inuvialuit Regional Corporation\projects\ccadi\catalog.inuvialuit.com\catalog\assets\images\brands\02-cfi.png"
   inkscape:export-xdpi="150"
   inkscape:export-ydpi="150" />
<path
   class="st0"
   d="m 163.8,139 v 0 c 0.2,-5.7 5,-10.1 10.6,-9.9 5.3,0.2 9.5,4.4 9.8,9.7 v 0.1 c -0.2,5.6 -5,10 -10.6,9.8 -5.3,-0.2 -9.5,-4.4 -9.8,-9.7 z m 15.1,0 v 0 c 0.1,-2.8 -2,-5.2 -4.8,-5.3 -0.1,0 -0.1,0 -0.2,0 -2.7,0 -4.9,2.1 -4.9,4.7 0,0.1 0,0.3 0,0.4 v 0.1 c -0.1,2.8 2,5.1 4.8,5.2 0.1,0 0.1,0 0.2,0 2.7,0 4.9,-2.1 4.9,-4.8 0.1,-0.1 0,-0.2 0,-0.3 z"
   id="path36"
   style="fill:#000000;fill-opacity:1"
   inkscape:export-filename="C:\Users\cpritchard\OneDrive\OneDrive - Inuvialuit Regional Corporation\projects\ccadi\catalog.inuvialuit.com\catalog\assets\images\brands\02-cfi.png"
   inkscape:export-xdpi="150"
   inkscape:export-ydpi="150" />
<path
   class="st0"
   d="m 187.1,141.7 v -12.2 h 5.3 V 140 c 0,2.5 1.2,3.8 3.2,3.8 2,0 3.4,-1.3 3.4,-3.8 v -10.5 h 5.4 v 18.9 H 199 v -2.7 c -1.2,1.9 -3.3,3 -5.5,3 -4.1,0 -6.4,-2.7 -6.4,-7 z"
   id="path38"
   style="fill:#000000;fill-opacity:1"
   inkscape:export-filename="C:\Users\cpritchard\OneDrive\OneDrive - Inuvialuit Regional Corporation\projects\ccadi\catalog.inuvialuit.com\catalog\assets\images\brands\02-cfi.png"
   inkscape:export-xdpi="150"
   inkscape:export-ydpi="150" />
<path
   class="st0"
   d="m 208.2,129.5 h 5.3 v 2.7 c 1.2,-1.9 3.3,-3 5.5,-3 4,0 6.4,2.7 6.4,7 v 12.2 h -5.3 v -10.5 c 0,-2.5 -1.2,-3.8 -3.2,-3.8 -2,0 -3.3,1.3 -3.3,3.8 v 10.5 h -5.3 v -18.9 z"
   id="path40"
   style="fill:#000000;fill-opacity:1"
   inkscape:export-filename="C:\Users\cpritchard\OneDrive\OneDrive - Inuvialuit Regional Corporation\projects\ccadi\catalog.inuvialuit.com\catalog\assets\images\brands\02-cfi.png"
   inkscape:export-xdpi="150"
   inkscape:export-ydpi="150" />
<path
   class="st0"
   d="m 228.4,138.9 v 0 c 0,-6.4 4.1,-9.8 8.6,-9.8 2.3,0 4.5,1 5.9,2.8 v -9.3 h 5.3 v 25.7 h -5.3 v -2.7 c -1.3,2 -3.5,3.1 -5.9,3.1 -4.4,0 -8.6,-3.5 -8.6,-9.8 z m 14.6,0 v 0 c 0,-3.2 -2.1,-5.3 -4.6,-5.3 -2.5,0 -4.6,2 -4.6,5.2 v 0.1 c 0,3.1 2.1,5.2 4.6,5.2 2.5,0 4.6,-2 4.6,-5.2 z"
   id="path42"
   style="fill:#000000;fill-opacity:1"
   inkscape:export-filename="C:\Users\cpritchard\OneDrive\OneDrive - Inuvialuit Regional Corporation\projects\ccadi\catalog.inuvialuit.com\catalog\assets\images\brands\02-cfi.png"
   inkscape:export-xdpi="150"
   inkscape:export-ydpi="150" />
<path
   class="st0"
   d="m 251,142.9 v 0 c 0,-4.2 3.1,-6.1 7.6,-6.1 1.6,0 3.1,0.2 4.6,0.8 v -0.3 c 0,-2.2 -1.4,-3.4 -4,-3.4 -1.8,0 -3.6,0.3 -5.2,1 l -1.3,-4.1 c 2.3,-1 4.8,-1.6 7.3,-1.5 2.9,0 5,0.8 6.4,2.1 1.4,1.7 2.2,3.8 2,6 v 10.9 h -5.2 v -2 c -1.4,1.6 -3.5,2.5 -5.7,2.4 -3.6,0 -6.5,-2.1 -6.5,-5.8 z m 12.3,-1.2 v -1 c -1.1,-0.5 -2.2,-0.7 -3.4,-0.7 -2.3,0 -3.7,0.9 -3.7,2.6 v 0.1 c 0,1.5 1.2,2.3 2.9,2.3 2.5,0 4.2,-1.4 4.2,-3.3 z"
   id="path44"
   style="fill:#000000;fill-opacity:1"
   inkscape:export-filename="C:\Users\cpritchard\OneDrive\OneDrive - Inuvialuit Regional Corporation\projects\ccadi\catalog.inuvialuit.com\catalog\assets\images\brands\02-cfi.png"
   inkscape:export-xdpi="150"
   inkscape:export-ydpi="150" />
<path
   class="st0"
   d="m 272.8,143 v -8.9 h -2.2 v -4.6 h 2.2 v -4.8 h 5.4 v 4.8 h 4.4 v 4.6 h -4.4 v 8.1 c 0,1.2 0.5,1.8 1.7,1.8 0.9,0 1.8,-0.2 2.6,-0.7 v 4.3 c -1.3,0.8 -2.7,1.1 -4.2,1.1 -3.3,-0.1 -5.5,-1.3 -5.5,-5.7 z"
   id="path46"
   style="fill:#000000;fill-opacity:1"
   inkscape:export-filename="C:\Users\cpritchard\OneDrive\OneDrive - Inuvialuit Regional Corporation\projects\ccadi\catalog.inuvialuit.com\catalog\assets\images\brands\02-cfi.png"
   inkscape:export-xdpi="150"
   inkscape:export-ydpi="150" />
<path
   class="st0"
   d="m 285.7,122.7 h 5.6 v 4.7 h -5.6 z m 0.2,6.8 h 5.4 v 18.9 h -5.4 z"
   id="path48"
   style="fill:#000000;fill-opacity:1"
   inkscape:export-filename="C:\Users\cpritchard\OneDrive\OneDrive - Inuvialuit Regional Corporation\projects\ccadi\catalog.inuvialuit.com\catalog\assets\images\brands\02-cfi.png"
   inkscape:export-xdpi="150"
   inkscape:export-ydpi="150" />
<path
   class="st0"
   d="m 294.5,139 v 0 c 0.2,-5.7 5,-10.1 10.6,-9.9 5.3,0.2 9.5,4.4 9.8,9.7 v 0.1 c 0,5.5 -4.5,9.9 -10,9.8 -0.1,0 -0.2,0 -0.3,0 -5.4,0.2 -9.9,-4 -10.2,-9.4 0.1,-0.1 0.1,-0.2 0.1,-0.3 z m 15.1,0 v 0 c 0.1,-2.8 -2,-5.2 -4.8,-5.3 -0.1,0 -0.1,0 -0.2,0 -2.7,0 -4.9,2.1 -4.9,4.8 0,0.1 0,0.2 0,0.4 v 0.1 c -0.1,2.8 2,5.1 4.8,5.2 0.1,0 0.1,0 0.2,0 2.7,0 4.9,-2.1 4.9,-4.8 0,-0.1 0,-0.3 0,-0.4 z"
   id="path50"
   style="fill:#000000;fill-opacity:1"
   inkscape:export-filename="C:\Users\cpritchard\OneDrive\OneDrive - Inuvialuit Regional Corporation\projects\ccadi\catalog.inuvialuit.com\catalog\assets\images\brands\02-cfi.png"
   inkscape:export-xdpi="150"
   inkscape:export-ydpi="150" />
<path
   class="st0"
   d="m 317.8,129.5 h 5.4 v 2.7 c 1.2,-1.9 3.3,-3 5.5,-3 4,0 6.4,2.7 6.4,7 v 12.2 h -5.3 v -10.5 c 0,-2.5 -1.2,-3.8 -3.2,-3.8 -2,0 -3.3,1.3 -3.3,3.8 v 10.5 h -5.4 v -18.9 z"
   id="path52"
   style="fill:#000000;fill-opacity:1"
   inkscape:export-filename="C:\Users\cpritchard\OneDrive\OneDrive - Inuvialuit Regional Corporation\projects\ccadi\catalog.inuvialuit.com\catalog\assets\images\brands\02-cfi.png"
   inkscape:export-xdpi="150"
   inkscape:export-ydpi="150" />
<path
   class="st0"
   d="M 5.5,169.4 H 3.3 V 165 h 2.2 v -1.2 c -0.1,-1.7 0.4,-3.3 1.5,-4.6 1.2,-1.1 2.7,-1.6 4.3,-1.5 1.3,0 2.6,0.1 3.8,0.5 v 4.4 c -0.8,-0.3 -1.6,-0.5 -2.4,-0.5 -1.2,0 -1.9,0.6 -1.9,2 v 0.7 h 4.3 v 4.4 h -4.2 v 14.3 H 5.5 Z"
   id="path54"
   style="fill:#000000;fill-opacity:1"
   inkscape:export-filename="C:\Users\cpritchard\OneDrive\OneDrive - Inuvialuit Regional Corporation\projects\ccadi\catalog.inuvialuit.com\catalog\assets\images\brands\02-cfi.png"
   inkscape:export-xdpi="150"
   inkscape:export-ydpi="150" />
<path
   class="st0"
   d="m 15.9,174.4 v 0 c 0,-5.5 4.5,-9.9 10,-9.9 0.1,0 0.2,0 0.3,0 5.4,-0.2 10,4 10.2,9.4 0,0.1 0,0.2 0,0.3 v 0.1 c 0,5.5 -4.5,9.9 -10,9.8 -0.1,0 -0.2,0 -0.3,0 -5.4,0.2 -10,-4 -10.2,-9.4 0,-0.1 0,-0.2 0,-0.3 z m 15.1,0 v 0 c 0.1,-2.8 -2,-5.2 -4.8,-5.3 -0.1,0 -0.1,0 -0.2,0 -2.7,0 -4.9,2.1 -4.9,4.8 0,0.1 0,0.2 0,0.4 v 0.1 c -0.1,2.8 2,5.1 4.8,5.2 0.1,0 0.1,0 0.2,0 2.7,0 4.9,-2.1 4.9,-4.8 0,-0.1 0,-0.3 0,-0.4 z"
   id="path56"
   style="fill:#000000;fill-opacity:1"
   inkscape:export-filename="C:\Users\cpritchard\OneDrive\OneDrive - Inuvialuit Regional Corporation\projects\ccadi\catalog.inuvialuit.com\catalog\assets\images\brands\02-cfi.png"
   inkscape:export-xdpi="150"
   inkscape:export-ydpi="150" />
<path
   class="st0"
   d="m 39.3,164.9 h 5.3 v 3.8 c 1.1,-2.6 2.9,-4.3 6,-4.1 v 5.6 h -0.3 c -3.6,0 -5.7,2.2 -5.7,6.7 v 7 h -5.3 z"
   id="path58"
   style="fill:#000000;fill-opacity:1"
   inkscape:export-filename="C:\Users\cpritchard\OneDrive\OneDrive - Inuvialuit Regional Corporation\projects\ccadi\catalog.inuvialuit.com\catalog\assets\images\brands\02-cfi.png"
   inkscape:export-xdpi="150"
   inkscape:export-ydpi="150" />
<path
   class="st0"
   d="M 63.6,159.1 H 69 v 24.6 h -5.4 z"
   id="path60"
   style="fill:#000000;fill-opacity:1"
   inkscape:export-filename="C:\Users\cpritchard\OneDrive\OneDrive - Inuvialuit Regional Corporation\projects\ccadi\catalog.inuvialuit.com\catalog\assets\images\brands\02-cfi.png"
   inkscape:export-xdpi="150"
   inkscape:export-ydpi="150" />
<path
   class="st0"
   d="M 73.7,164.9 H 79 v 2.7 c 1.2,-1.9 3.3,-3 5.5,-3 4,0 6.4,2.7 6.4,7 v 12.2 h -5.4 v -10.5 c 0,-2.5 -1.2,-3.8 -3.2,-3.8 -2,0 -3.3,1.3 -3.3,3.8 v 10.5 h -5.3 z"
   id="path62"
   style="fill:#000000;fill-opacity:1"
   inkscape:export-filename="C:\Users\cpritchard\OneDrive\OneDrive - Inuvialuit Regional Corporation\projects\ccadi\catalog.inuvialuit.com\catalog\assets\images\brands\02-cfi.png"
   inkscape:export-xdpi="150"
   inkscape:export-ydpi="150" />
<path
   class="st0"
   d="m 94.7,164.9 h 5.3 v 2.7 c 1.2,-1.9 3.3,-3 5.5,-3 4,0 6.4,2.7 6.4,7 v 12.2 h -5.3 v -10.5 c 0,-2.5 -1.2,-3.8 -3.2,-3.8 -2,0 -3.3,1.3 -3.3,3.8 v 10.5 h -5.3 v -18.9 z"
   id="path64"
   style="fill:#000000;fill-opacity:1"
   inkscape:export-filename="C:\Users\cpritchard\OneDrive\OneDrive - Inuvialuit Regional Corporation\projects\ccadi\catalog.inuvialuit.com\catalog\assets\images\brands\02-cfi.png"
   inkscape:export-xdpi="150"
   inkscape:export-ydpi="150" />
<path
   class="st0"
   d="m 114.9,174.4 v 0 c 0.2,-5.7 5,-10.1 10.6,-9.9 5.3,0.2 9.5,4.4 9.8,9.7 v 0.1 c -0.2,5.6 -5,10 -10.6,9.8 -5.3,-0.2 -9.6,-4.4 -9.8,-9.7 z m 15.1,0 v 0 c 0.1,-2.8 -2,-5.2 -4.8,-5.3 -0.1,0 -0.1,0 -0.2,0 -2.7,0 -4.9,2.1 -4.9,4.8 0,0.1 0,0.2 0,0.4 v 0.1 c -0.1,2.8 2,5.1 4.8,5.2 0.1,0 0.1,0 0.2,0 2.7,0 4.9,-2.1 4.9,-4.7 0,-0.2 0,-0.4 0,-0.5 z"
   id="path66"
   style="fill:#000000;fill-opacity:1"
   inkscape:export-filename="C:\Users\cpritchard\OneDrive\OneDrive - Inuvialuit Regional Corporation\projects\ccadi\catalog.inuvialuit.com\catalog\assets\images\brands\02-cfi.png"
   inkscape:export-xdpi="150"
   inkscape:export-ydpi="150" />
<path
   class="st0"
   d="m 135.5,164.9 h 5.7 l 4.2,12.6 4.3,-12.6 h 5.6 l -7.4,19 H 143 Z"
   id="path68"
   style="fill:#000000;fill-opacity:1"
   inkscape:export-filename="C:\Users\cpritchard\OneDrive\OneDrive - Inuvialuit Regional Corporation\projects\ccadi\catalog.inuvialuit.com\catalog\assets\images\brands\02-cfi.png"
   inkscape:export-xdpi="150"
   inkscape:export-ydpi="150" />
<path
   class="st0"
   d="m 155.4,178.3 v 0 c 0,-4.2 3.1,-6.1 7.6,-6.1 1.6,0 3.1,0.3 4.6,0.8 v -0.3 c 0,-2.2 -1.4,-3.5 -4,-3.5 -1.8,0 -3.5,0.3 -5.2,1 l -1.4,-4.1 c 2.3,-1 4.8,-1.6 7.3,-1.5 2.9,0 5,0.8 6.4,2.1 1.4,1.7 2.2,3.8 2,6 v 10.9 h -5.2 v -2 c -1.4,1.6 -3.5,2.5 -5.7,2.4 -3.5,0.1 -6.4,-1.9 -6.4,-5.7 z m 12.3,-1.2 v -1 c -1.1,-0.5 -2.2,-0.7 -3.4,-0.7 -2.3,0 -3.7,0.9 -3.7,2.6 v 0.1 c 0,1.4 1.2,2.3 2.9,2.3 2.5,0 4.2,-1.4 4.2,-3.3 z"
   id="path70"
   style="fill:#000000;fill-opacity:1"
   inkscape:export-filename="C:\Users\cpritchard\OneDrive\OneDrive - Inuvialuit Regional Corporation\projects\ccadi\catalog.inuvialuit.com\catalog\assets\images\brands\02-cfi.png"
   inkscape:export-xdpi="150"
   inkscape:export-ydpi="150" />
<path
   class="st0"
   d="m 177.2,178.4 v -8.9 H 175 v -4.6 h 2.2 v -4.8 h 5.4 v 4.8 h 4.5 v 4.6 h -4.4 v 8.1 c 0,1.2 0.5,1.8 1.7,1.8 0.9,0 1.8,-0.2 2.6,-0.7 v 4.3 c -1.3,0.8 -2.7,1.1 -4.2,1.1 -3.4,0 -5.6,-1.3 -5.6,-5.7 z"
   id="path72"
   style="fill:#000000;fill-opacity:1"
   inkscape:export-filename="C:\Users\cpritchard\OneDrive\OneDrive - Inuvialuit Regional Corporation\projects\ccadi\catalog.inuvialuit.com\catalog\assets\images\brands\02-cfi.png"
   inkscape:export-xdpi="150"
   inkscape:export-ydpi="150" />
<path
   class="st0"
   d="m 190.1,158.1 h 5.6 v 4.7 h -5.6 z m 0.2,6.8 h 5.3 v 18.9 h -5.3 z"
   id="path74"
   style="fill:#000000;fill-opacity:1"
   inkscape:export-filename="C:\Users\cpritchard\OneDrive\OneDrive - Inuvialuit Regional Corporation\projects\ccadi\catalog.inuvialuit.com\catalog\assets\images\brands\02-cfi.png"
   inkscape:export-xdpi="150"
   inkscape:export-ydpi="150" />
<path
   class="st0"
   d="m 198.9,174.4 v 0 c 0.2,-5.7 5,-10.1 10.6,-9.9 5.3,0.2 9.5,4.4 9.8,9.7 v 0.1 c -0.2,5.6 -5,10 -10.6,9.8 -5.4,-0.2 -9.6,-4.4 -9.8,-9.7 z m 15.1,0 v 0 c 0.1,-2.8 -2,-5.2 -4.8,-5.3 -0.1,0 -0.1,0 -0.2,0 -2.7,0 -4.9,2.1 -4.9,4.8 0,0.1 0,0.2 0,0.4 v 0.1 c -0.1,2.8 2,5.1 4.8,5.2 0.1,0 0.1,0 0.2,0 2.7,0 4.9,-2.1 4.9,-4.8 0,-0.1 0,-0.3 0,-0.4 z"
   id="path76"
   style="fill:#000000;fill-opacity:1"
   inkscape:export-filename="C:\Users\cpritchard\OneDrive\OneDrive - Inuvialuit Regional Corporation\projects\ccadi\catalog.inuvialuit.com\catalog\assets\images\brands\02-cfi.png"
   inkscape:export-xdpi="150"
   inkscape:export-ydpi="150" />
<path
   class="st0"
   d="m 222.2,164.9 h 5.3 v 2.7 c 1.2,-1.9 3.3,-3 5.5,-3 4,0 6.4,2.7 6.4,7 v 12.2 h -5.3 v -10.5 c 0,-2.5 -1.2,-3.8 -3.2,-3.8 -2,0 -3.3,1.3 -3.3,3.8 v 10.5 h -5.3 v -18.9 z"
   id="path78"
   style="fill:#000000;fill-opacity:1"
   inkscape:export-filename="C:\Users\cpritchard\OneDrive\OneDrive - Inuvialuit Regional Corporation\projects\ccadi\catalog.inuvialuit.com\catalog\assets\images\brands\02-cfi.png"
   inkscape:export-xdpi="150"
   inkscape:export-ydpi="150" />
<path
   class="st0"
   d="m 384.4,122.8 h 18.8 v 4.9 h -13.3 v 5.2 h 11.8 v 4.9 h -11.8 v 9.5 h -5.4 v -24.5 z"
   id="path80"
   style="fill:#000000;fill-opacity:1"
   inkscape:export-filename="C:\Users\cpritchard\OneDrive\OneDrive - Inuvialuit Regional Corporation\projects\ccadi\catalog.inuvialuit.com\catalog\assets\images\brands\02-cfi.png"
   inkscape:export-xdpi="150"
   inkscape:export-ydpi="150" />
<path
   class="st0"
   d="m 404.5,138.1 v 0 c 0,-5.5 4.5,-9.9 10,-9.9 0.1,0 0.2,0 0.3,0 5.4,-0.2 10,4 10.2,9.4 0,0.1 0,0.2 0,0.4 v 0.1 c -0.2,5.6 -5,10 -10.6,9.8 -5.3,-0.3 -9.5,-4.5 -9.9,-9.8 z m 15.2,0 v 0 c 0.1,-2.8 -2,-5.1 -4.8,-5.2 -0.1,0 -0.1,0 -0.2,0 -2.7,0 -4.9,2.1 -4.9,4.8 0,0.1 0,0.2 0,0.4 v 0.1 c -0.1,2.8 2,5.1 4.8,5.2 0.1,0 0.1,0 0.2,0 2.7,0 4.9,-2.1 4.9,-4.8 0,-0.3 0,-0.4 0,-0.5 z"
   id="path82"
   style="fill:#000000;fill-opacity:1"
   inkscape:export-filename="C:\Users\cpritchard\OneDrive\OneDrive - Inuvialuit Regional Corporation\projects\ccadi\catalog.inuvialuit.com\catalog\assets\images\brands\02-cfi.png"
   inkscape:export-xdpi="150"
   inkscape:export-ydpi="150" />
<path
   class="st0"
   d="m 427.9,128.5 h 5.4 v 2.7 c 1.2,-1.9 3.3,-3 5.5,-3 4,0 6.4,2.7 6.4,7 v 12.2 h -5.4 v -10.5 c 0,-2.5 -1.2,-3.8 -3.2,-3.8 -2,0 -3.3,1.3 -3.3,3.8 v 10.5 h -5.4 z"
   id="path84"
   style="fill:#000000;fill-opacity:1"
   inkscape:export-filename="C:\Users\cpritchard\OneDrive\OneDrive - Inuvialuit Regional Corporation\projects\ccadi\catalog.inuvialuit.com\catalog\assets\images\brands\02-cfi.png"
   inkscape:export-xdpi="150"
   inkscape:export-ydpi="150" />
<path
   class="st0"
   d="m 448.1,138 v 0 c 0,-6.4 4.1,-9.8 8.6,-9.8 2.3,0 4.5,1 5.9,2.8 v -9.3 h 5.3 v 25.7 h -5.3 v -2.7 c -1.3,2 -3.5,3.1 -5.9,3.1 -4.4,-0.1 -8.6,-3.5 -8.6,-9.8 z m 14.6,0 v 0 c 0,-3.2 -2.1,-5.3 -4.6,-5.3 -2.5,0 -4.6,2 -4.6,5.2 v 0.1 c 0,3.1 2.1,5.2 4.6,5.2 2.5,0 4.6,-2.1 4.6,-5.2 z"
   id="path86"
   style="fill:#000000;fill-opacity:1"
   inkscape:export-filename="C:\Users\cpritchard\OneDrive\OneDrive - Inuvialuit Regional Corporation\projects\ccadi\catalog.inuvialuit.com\catalog\assets\images\brands\02-cfi.png"
   inkscape:export-xdpi="150"
   inkscape:export-ydpi="150" />
<path
   class="st0"
   d="m 470.7,142 v 0 c 0,-4.2 3.1,-6.1 7.6,-6.1 1.6,0 3.1,0.2 4.6,0.8 v -0.3 c 0,-2.2 -1.4,-3.4 -4,-3.4 -1.8,0 -3.6,0.3 -5.2,1 l -1.3,-4.1 c 2.3,-1 4.8,-1.6 7.3,-1.5 2.9,0 5,0.8 6.4,2.1 1.4,1.7 2.2,3.8 2,6 v 10.9 h -5.2 v -2 c -1.4,1.6 -3.5,2.5 -5.7,2.4 -3.6,-0.1 -6.5,-2.1 -6.5,-5.8 z m 12.3,-1.3 v -0.9 c -1.1,-0.5 -2.2,-0.7 -3.4,-0.7 -2.3,0 -3.7,0.9 -3.7,2.6 v 0.1 c 0,1.4 1.2,2.3 2.9,2.3 2.5,-0.1 4.2,-1.4 4.2,-3.4 z"
   id="path88"
   style="fill:#000000;fill-opacity:1"
   inkscape:export-filename="C:\Users\cpritchard\OneDrive\OneDrive - Inuvialuit Regional Corporation\projects\ccadi\catalog.inuvialuit.com\catalog\assets\images\brands\02-cfi.png"
   inkscape:export-xdpi="150"
   inkscape:export-ydpi="150" />
<path
   class="st0"
   d="m 492.5,142 v -8.9 h -2.2 v -4.6 h 2.2 v -4.8 h 5.3 v 4.8 h 4.4 v 4.6 h -4.4 v 8.1 c 0,1.2 0.5,1.8 1.7,1.8 0.9,0 1.8,-0.2 2.6,-0.7 v 4.3 c -1.3,0.8 -2.7,1.1 -4.2,1.1 -3.2,0 -5.4,-1.3 -5.4,-5.7 z"
   id="path90"
   style="fill:#000000;fill-opacity:1"
   inkscape:export-filename="C:\Users\cpritchard\OneDrive\OneDrive - Inuvialuit Regional Corporation\projects\ccadi\catalog.inuvialuit.com\catalog\assets\images\brands\02-cfi.png"
   inkscape:export-xdpi="150"
   inkscape:export-ydpi="150" />
<path
   class="st0"
   d="m 505.4,121.7 h 5.6 v 4.7 h -5.6 z m 0.2,6.8 h 5.4 v 18.8 h -5.4 z"
   id="path92"
   style="fill:#000000;fill-opacity:1"
   inkscape:export-filename="C:\Users\cpritchard\OneDrive\OneDrive - Inuvialuit Regional Corporation\projects\ccadi\catalog.inuvialuit.com\catalog\assets\images\brands\02-cfi.png"
   inkscape:export-xdpi="150"
   inkscape:export-ydpi="150" />
<path
   class="st0"
   d="m 514.2,138.1 v 0 c 0.2,-5.7 5,-10.1 10.6,-9.8 5.3,0.2 9.5,4.4 9.8,9.7 v 0.1 c 0,5.5 -4.5,9.9 -10,9.8 -0.1,0 -0.2,0 -0.3,0 -5.4,0.2 -10,-4 -10.2,-9.4 0.1,-0.2 0.1,-0.3 0.1,-0.4 z m 15.1,0 v 0 c 0.1,-2.8 -2,-5.1 -4.8,-5.2 -0.1,0 -0.1,0 -0.2,0 -2.7,0 -4.9,2.1 -4.9,4.8 0,0.1 0,0.2 0,0.4 v 0.1 c -0.1,2.8 2,5.1 4.8,5.2 0.1,0 0.1,0 0.2,0 2.7,0 4.9,-2.1 4.9,-4.8 0,-0.3 0,-0.4 0,-0.5 z"
   id="path94"
   style="fill:#000000;fill-opacity:1"
   inkscape:export-filename="C:\Users\cpritchard\OneDrive\OneDrive - Inuvialuit Regional Corporation\projects\ccadi\catalog.inuvialuit.com\catalog\assets\images\brands\02-cfi.png"
   inkscape:export-xdpi="150"
   inkscape:export-ydpi="150" />
<path
   class="st0"
   d="m 537.5,128.5 h 5.3 v 2.7 c 1.2,-1.9 3.3,-3 5.5,-3 4,0 6.4,2.7 6.4,7 v 12.2 h -5.3 v -10.5 c 0,-2.5 -1.2,-3.8 -3.2,-3.8 -2,0 -3.3,1.3 -3.3,3.8 v 10.5 h -5.3 v -18.9 z"
   id="path96"
   style="fill:#000000;fill-opacity:1"
   inkscape:export-filename="C:\Users\cpritchard\OneDrive\OneDrive - Inuvialuit Regional Corporation\projects\ccadi\catalog.inuvialuit.com\catalog\assets\images\brands\02-cfi.png"
   inkscape:export-xdpi="150"
   inkscape:export-ydpi="150" />
<path
   class="st0"
   d="m 567.3,138.1 v 0 c -0.1,-5.4 4.2,-9.8 9.5,-9.9 0.1,0 0.2,0 0.3,0 2.9,-0.2 5.6,1 7.5,3.2 l -3.3,3.5 c -1,-1.3 -2.6,-2.1 -4.3,-2.1 -2.7,0 -4.6,2.3 -4.6,5.1 v 0.1 c 0,2.9 1.9,5.2 4.8,5.2 1.7,0 3.2,-0.8 4.3,-2 l 3.1,3.2 c -1.9,2.3 -4.7,3.6 -7.7,3.4 -5.3,0.1 -9.7,-4.1 -9.8,-9.4 0.2,-0.1 0.2,-0.2 0.2,-0.3 z"
   id="path98"
   style="fill:#000000;fill-opacity:1"
   inkscape:export-filename="C:\Users\cpritchard\OneDrive\OneDrive - Inuvialuit Regional Corporation\projects\ccadi\catalog.inuvialuit.com\catalog\assets\images\brands\02-cfi.png"
   inkscape:export-xdpi="150"
   inkscape:export-ydpi="150" />
<path
   class="st0"
   d="m 586.3,142 v 0 c 0,-4.2 3.1,-6.1 7.6,-6.1 1.6,0 3.1,0.2 4.6,0.8 v -0.3 c 0,-2.2 -1.4,-3.4 -4,-3.4 -1.8,0 -3.6,0.3 -5.2,1 l -1.3,-4.1 c 2.3,-1 4.8,-1.6 7.3,-1.5 2.9,0 5,0.8 6.4,2.1 1.4,1.7 2.2,3.8 2,6 v 10.9 h -5.2 v -2 c -1.4,1.6 -3.5,2.5 -5.7,2.4 -3.6,-0.1 -6.5,-2.1 -6.5,-5.8 z m 12.3,-1.2 v -0.9 c -1.1,-0.5 -2.2,-0.7 -3.4,-0.7 -2.3,0 -3.7,0.9 -3.7,2.6 v 0.1 c 0,1.4 1.2,2.3 2.9,2.3 2.5,-0.2 4.2,-1.5 4.2,-3.4 z"
   id="path100"
   style="fill:#000000;fill-opacity:1"
   inkscape:export-filename="C:\Users\cpritchard\OneDrive\OneDrive - Inuvialuit Regional Corporation\projects\ccadi\catalog.inuvialuit.com\catalog\assets\images\brands\02-cfi.png"
   inkscape:export-xdpi="150"
   inkscape:export-ydpi="150" />
<path
   class="st0"
   d="m 607.4,128.5 h 5.3 v 2.7 c 1.2,-1.9 3.3,-3 5.5,-3 4,0 6.4,2.7 6.4,7 v 12.2 h -5.3 v -10.5 c 0,-2.5 -1.2,-3.8 -3.2,-3.8 -2,0 -3.3,1.3 -3.3,3.8 v 10.5 h -5.3 v -18.9 z"
   id="path102"
   style="fill:#000000;fill-opacity:1"
   inkscape:export-filename="C:\Users\cpritchard\OneDrive\OneDrive - Inuvialuit Regional Corporation\projects\ccadi\catalog.inuvialuit.com\catalog\assets\images\brands\02-cfi.png"
   inkscape:export-xdpi="150"
   inkscape:export-ydpi="150" />
<path
   class="st0"
   d="m 627.3,142 v 0 c 0,-4.2 3.1,-6.1 7.6,-6.1 1.6,0 3.1,0.2 4.6,0.8 v -0.3 c 0,-2.2 -1.4,-3.4 -4,-3.4 -1.8,0 -3.5,0.3 -5.2,1 l -1.3,-4.1 c 2.3,-1 4.8,-1.6 7.3,-1.5 2.9,0 5,0.8 6.4,2.1 1.4,1.7 2.2,3.8 2,6 v 10.9 h -5.2 v -2 c -1.4,1.6 -3.5,2.5 -5.7,2.4 -3.6,-0.1 -6.5,-2.1 -6.5,-5.8 z m 12.3,-1.2 v -0.9 c -1.1,-0.5 -2.2,-0.7 -3.4,-0.7 -2.3,0 -3.7,0.9 -3.7,2.6 v 0.1 c 0,1.4 1.2,2.3 2.9,2.3 2.5,-0.2 4.2,-1.5 4.2,-3.4 z"
   id="path104"
   style="fill:#000000;fill-opacity:1"
   inkscape:export-filename="C:\Users\cpritchard\OneDrive\OneDrive - Inuvialuit Regional Corporation\projects\ccadi\catalog.inuvialuit.com\catalog\assets\images\brands\02-cfi.png"
   inkscape:export-xdpi="150"
   inkscape:export-ydpi="150" />
<path
   class="st0"
   d="m 647.5,138 v 0 c 0,-6.4 4.1,-9.8 8.6,-9.8 2.3,-0.1 4.5,1 5.9,2.8 v -9.3 h 5.3 v 25.7 H 662 v -2.7 c -1.3,2 -3.5,3.1 -5.9,3.1 -4.4,-0.1 -8.6,-3.5 -8.6,-9.8 z m 14.5,0 v 0 c 0,-3.2 -2.1,-5.3 -4.6,-5.3 -2.5,0 -4.6,2 -4.6,5.2 v 0.1 c 0,3.1 2.1,5.2 4.6,5.2 2.5,0 4.6,-2.1 4.6,-5.2 z"
   id="path106"
   style="fill:#000000;fill-opacity:1"
   inkscape:export-filename="C:\Users\cpritchard\OneDrive\OneDrive - Inuvialuit Regional Corporation\projects\ccadi\catalog.inuvialuit.com\catalog\assets\images\brands\02-cfi.png"
   inkscape:export-xdpi="150"
   inkscape:export-ydpi="150" />
<path
   class="st0"
   d="m 671.3,121.7 h 5.7 v 4.7 h -5.6 z m 0.2,6.8 h 5.3 v 18.8 h -5.3 z"
   id="path108"
   style="fill:#000000;fill-opacity:1"
   inkscape:export-filename="C:\Users\cpritchard\OneDrive\OneDrive - Inuvialuit Regional Corporation\projects\ccadi\catalog.inuvialuit.com\catalog\assets\images\brands\02-cfi.png"
   inkscape:export-xdpi="150"
   inkscape:export-ydpi="150" />
<path
   class="st0"
   d="m 680,138.1 v 0 c 0,-5.4 3.8,-9.9 9.3,-9.9 6.3,0 9.2,4.9 9.2,10.2 0,0.4 0,0.9 -0.1,1.4 h -13.1 c 0.4,2.2 2.4,3.8 4.6,3.7 1.7,0 3.4,-0.7 4.6,-1.9 l 3.1,2.7 c -3.6,4.2 -9.9,4.6 -14.1,1 -2.1,-1.8 -3.3,-4.5 -3.5,-7.2 z m 13.3,-1.6 c -0.3,-2.4 -1.7,-4 -4,-4 -2.3,0 -3.7,1.6 -4.1,4 z"
   id="path110"
   style="fill:#000000;fill-opacity:1"
   inkscape:export-filename="C:\Users\cpritchard\OneDrive\OneDrive - Inuvialuit Regional Corporation\projects\ccadi\catalog.inuvialuit.com\catalog\assets\images\brands\02-cfi.png"
   inkscape:export-xdpi="150"
   inkscape:export-ydpi="150" />
<path
   class="st0"
   d="m 701.6,128.5 h 5.4 v 2.7 c 1.2,-1.9 3.3,-3 5.5,-3 4,0 6.4,2.7 6.4,7 v 12.2 h -5.3 v -10.5 c 0,-2.5 -1.2,-3.8 -3.2,-3.8 -2,0 -3.3,1.3 -3.3,3.8 v 10.5 h -5.3 z"
   id="path112"
   style="fill:#000000;fill-opacity:1"
   inkscape:export-filename="C:\Users\cpritchard\OneDrive\OneDrive - Inuvialuit Regional Corporation\projects\ccadi\catalog.inuvialuit.com\catalog\assets\images\brands\02-cfi.png"
   inkscape:export-xdpi="150"
   inkscape:export-ydpi="150" />
<path
   class="st0"
   d="m 722.7,128.5 h 5.3 v 2.7 c 1.2,-1.9 3.3,-3 5.5,-3 4,0 6.4,2.7 6.4,7 v 12.2 h -5.3 v -10.5 c 0,-2.5 -1.2,-3.8 -3.2,-3.8 -2,0 -3.3,1.3 -3.3,3.8 v 10.5 h -5.3 v -18.9 z"
   id="path114"
   style="fill:#000000;fill-opacity:1"
   inkscape:export-filename="C:\Users\cpritchard\OneDrive\OneDrive - Inuvialuit Regional Corporation\projects\ccadi\catalog.inuvialuit.com\catalog\assets\images\brands\02-cfi.png"
   inkscape:export-xdpi="150"
   inkscape:export-ydpi="150" />
<path
   class="st0"
   d="m 742.8,138.1 v 0 c 0,-5.4 3.8,-9.9 9.3,-9.9 6.3,0 9.2,4.9 9.2,10.2 0,0.4 0,0.9 -0.1,1.4 h -13.1 c 0.3,2.2 2.3,3.8 4.6,3.7 1.7,0 3.4,-0.7 4.6,-1.9 l 3.1,2.7 c -3.6,4.2 -9.9,4.6 -14.1,1 -2.2,-1.8 -3.4,-4.4 -3.5,-7.2 z m 13.3,-1.6 c -0.3,-2.4 -1.7,-4 -4,-4 -2.3,0 -3.7,1.6 -4.1,4 z"
   id="path116"
   style="fill:#000000;fill-opacity:1"
   inkscape:export-filename="C:\Users\cpritchard\OneDrive\OneDrive - Inuvialuit Regional Corporation\projects\ccadi\catalog.inuvialuit.com\catalog\assets\images\brands\02-cfi.png"
   inkscape:export-xdpi="150"
   inkscape:export-ydpi="150" />
<path
   class="st0"
   d="m 383.8,163.9 h 5.4 v 2.7 c 1.3,-2 3.5,-3.1 5.9,-3.1 4.4,0 8.6,3.4 8.6,9.7 v 0.1 c 0,6.3 -4.1,9.8 -8.6,9.8 -2.3,0 -4.5,-1 -5.9,-2.8 v 8.1 h -5.4 z m 14.5,9.5 v 0 c 0,-3.2 -2.1,-5.3 -4.6,-5.3 -2.5,0 -4.6,2.1 -4.6,5.2 v 0.1 c 0,3.1 2.1,5.2 4.6,5.2 2.5,0 4.6,-2 4.6,-5.2 z"
   id="path118"
   style="fill:#000000;fill-opacity:1"
   inkscape:export-filename="C:\Users\cpritchard\OneDrive\OneDrive - Inuvialuit Regional Corporation\projects\ccadi\catalog.inuvialuit.com\catalog\assets\images\brands\02-cfi.png"
   inkscape:export-xdpi="150"
   inkscape:export-ydpi="150" />
<path
   class="st0"
   d="m 405.8,173.4 v 0 c 0.2,-5.7 5,-10.1 10.6,-9.9 5.3,0.2 9.5,4.4 9.8,9.7 v 0.1 c 0,5.5 -4.5,9.9 -10,9.8 -0.1,0 -0.2,0 -0.3,0 -5.4,0.2 -10,-4 -10.2,-9.4 0.1,0 0.1,-0.1 0.1,-0.3 z m 15.1,0 v 0 c 0.1,-2.8 -2,-5.2 -4.8,-5.3 -0.1,0 -0.1,0 -0.2,0 -2.7,0 -4.9,2.1 -4.9,4.8 0,0.1 0,0.2 0,0.4 v 0.1 c -0.1,2.8 2,5.1 4.8,5.2 0.1,0 0.1,0 0.2,0 2.7,0 4.9,-2.1 4.9,-4.8 0,-0.1 0,-0.2 0,-0.4 z"
   id="path120"
   style="fill:#000000;fill-opacity:1"
   inkscape:export-filename="C:\Users\cpritchard\OneDrive\OneDrive - Inuvialuit Regional Corporation\projects\ccadi\catalog.inuvialuit.com\catalog\assets\images\brands\02-cfi.png"
   inkscape:export-xdpi="150"
   inkscape:export-ydpi="150" />
<path
   class="st0"
   d="m 429,176.1 v -12.2 h 5.3 v 10.5 c 0,2.5 1.2,3.8 3.2,3.8 2,0 3.3,-1.3 3.3,-3.8 v -10.5 h 5.3 v 18.9 h -5.3 v -2.7 c -1.2,1.9 -3.3,3 -5.5,3 -3.9,0 -6.3,-2.7 -6.3,-7 z"
   id="path122"
   style="fill:#000000;fill-opacity:1"
   inkscape:export-filename="C:\Users\cpritchard\OneDrive\OneDrive - Inuvialuit Regional Corporation\projects\ccadi\catalog.inuvialuit.com\catalog\assets\images\brands\02-cfi.png"
   inkscape:export-xdpi="150"
   inkscape:export-ydpi="150" />
<path
   class="st0"
   d="m 450.2,163.9 h 5.3 v 3.8 c 1.1,-2.6 2.8,-4.3 6,-4.1 v 5.6 h -0.3 c -3.5,0 -5.7,2.1 -5.7,6.6 v 7 h -5.4 z"
   id="path124"
   style="fill:#000000;fill-opacity:1"
   inkscape:export-filename="C:\Users\cpritchard\OneDrive\OneDrive - Inuvialuit Regional Corporation\projects\ccadi\catalog.inuvialuit.com\catalog\assets\images\brands\02-cfi.png"
   inkscape:export-xdpi="150"
   inkscape:export-ydpi="150" />
<path
   class="st0"
   d="m 473.9,157.1 h 5.4 v 25.7 h -5.4 z"
   id="path126"
   style="fill:#000000;fill-opacity:1"
   inkscape:export-filename="C:\Users\cpritchard\OneDrive\OneDrive - Inuvialuit Regional Corporation\projects\ccadi\catalog.inuvialuit.com\catalog\assets\images\brands\02-cfi.png"
   inkscape:export-xdpi="150"
   inkscape:export-ydpi="150" />
<path
   class="st0"
   d="m 482.1,167.3 c 2.4,-0.2 3.6,-1.5 3.4,-3.5 h -2.2 v -5.6 h 5.7 v 4.8 c 0,4.6 -2.3,6.5 -6.5,6.6 z"
   id="path128"
   style="fill:#000000;fill-opacity:1"
   inkscape:export-filename="C:\Users\cpritchard\OneDrive\OneDrive - Inuvialuit Regional Corporation\projects\ccadi\catalog.inuvialuit.com\catalog\assets\images\brands\02-cfi.png"
   inkscape:export-xdpi="150"
   inkscape:export-ydpi="150" />
<path
   class="st0"
   d="m 492.7,157.1 h 5.6 v 4.8 h -5.6 z m 0.1,6.8 h 5.4 v 18.9 h -5.4 z"
   id="path130"
   style="fill:#000000;fill-opacity:1"
   inkscape:export-filename="C:\Users\cpritchard\OneDrive\OneDrive - Inuvialuit Regional Corporation\projects\ccadi\catalog.inuvialuit.com\catalog\assets\images\brands\02-cfi.png"
   inkscape:export-xdpi="150"
   inkscape:export-ydpi="150" />
<path
   class="st0"
   d="m 502.3,163.9 h 5.3 v 2.7 c 1.2,-1.9 3.3,-3 5.5,-3 4,0 6.4,2.7 6.4,7 v 12.2 h -5.3 v -10.5 c 0,-2.5 -1.2,-3.8 -3.2,-3.8 -2,0 -3.4,1.3 -3.4,3.8 v 10.5 h -5.3 z"
   id="path132"
   style="fill:#000000;fill-opacity:1"
   inkscape:export-filename="C:\Users\cpritchard\OneDrive\OneDrive - Inuvialuit Regional Corporation\projects\ccadi\catalog.inuvialuit.com\catalog\assets\images\brands\02-cfi.png"
   inkscape:export-xdpi="150"
   inkscape:export-ydpi="150" />
<path
   class="st0"
   d="m 523.4,163.9 h 5.4 v 2.7 c 1.2,-1.9 3.3,-3 5.5,-3 4,0 6.4,2.7 6.4,7 v 12.2 h -5.3 v -10.5 c 0,-2.5 -1.2,-3.8 -3.2,-3.8 -2,0 -3.3,1.3 -3.3,3.8 v 10.5 h -5.4 v -18.9 z"
   id="path134"
   style="fill:#000000;fill-opacity:1"
   inkscape:export-filename="C:\Users\cpritchard\OneDrive\OneDrive - Inuvialuit Regional Corporation\projects\ccadi\catalog.inuvialuit.com\catalog\assets\images\brands\02-cfi.png"
   inkscape:export-xdpi="150"
   inkscape:export-ydpi="150" />
<path
   class="st0"
   d="m 543.5,173.4 v 0 c 0.2,-5.7 5,-10.1 10.6,-9.9 5.3,0.2 9.5,4.4 9.8,9.7 v 0.1 c 0,5.5 -4.5,9.9 -10,9.8 -0.1,0 -0.2,0 -0.3,0 -5.4,0.2 -10,-4 -10.2,-9.4 0.1,0 0.1,-0.1 0.1,-0.3 z m 15.1,0 v 0 c 0.1,-2.8 -2,-5.2 -4.8,-5.3 -0.1,0 -0.1,0 -0.2,0 -2.7,0 -4.9,2.1 -4.9,4.8 0,0.1 0,0.2 0,0.4 v 0.1 c -0.1,2.8 2,5.1 4.8,5.2 0.1,0 0.1,0 0.2,0 2.7,0 4.9,-2.1 4.9,-4.8 0,-0.1 0,-0.2 0,-0.4 z"
   id="path136"
   style="fill:#000000;fill-opacity:1"
   inkscape:export-filename="C:\Users\cpritchard\OneDrive\OneDrive - Inuvialuit Regional Corporation\projects\ccadi\catalog.inuvialuit.com\catalog\assets\images\brands\02-cfi.png"
   inkscape:export-xdpi="150"
   inkscape:export-ydpi="150" />
<path
   class="st0"
   d="m 564.1,163.9 h 5.7 l 4.2,12.6 4.2,-12.6 h 5.6 l -7.4,19 h -4.9 z"
   id="path138"
   style="fill:#000000;fill-opacity:1"
   inkscape:export-filename="C:\Users\cpritchard\OneDrive\OneDrive - Inuvialuit Regional Corporation\projects\ccadi\catalog.inuvialuit.com\catalog\assets\images\brands\02-cfi.png"
   inkscape:export-xdpi="150"
   inkscape:export-ydpi="150" />
<path
   class="st0"
   d="m 584,177.4 v 0 c 0,-4.2 3.1,-6.1 7.6,-6.1 1.6,0 3.1,0.3 4.6,0.8 v -0.3 c 0,-2.2 -1.4,-3.4 -4,-3.4 -1.8,0 -3.5,0.3 -5.2,1 l -1.3,-4.1 c 2.3,-1 4.8,-1.6 7.3,-1.5 2.9,0 5,0.8 6.4,2.1 1.4,1.7 2.2,3.8 2,6 v 10.9 h -5.1 v -2 c -1.4,1.6 -3.5,2.5 -5.7,2.4 -3.6,-0.1 -6.6,-2.1 -6.6,-5.8 z m 12.3,-1.3 v -1 c -1.1,-0.5 -2.2,-0.7 -3.4,-0.7 -2.3,0 -3.7,0.9 -3.7,2.6 v 0.1 c 0,1.4 1.2,2.3 2.9,2.3 2.5,0 4.2,-1.3 4.2,-3.3 z"
   id="path140"
   style="fill:#000000;fill-opacity:1"
   inkscape:export-filename="C:\Users\cpritchard\OneDrive\OneDrive - Inuvialuit Regional Corporation\projects\ccadi\catalog.inuvialuit.com\catalog\assets\images\brands\02-cfi.png"
   inkscape:export-xdpi="150"
   inkscape:export-ydpi="150" />
<path
   class="st0"
   d="m 605.8,177.4 v -8.9 h -2.2 v -4.6 h 2.2 v -4.8 h 5.4 v 4.8 h 4.4 v 4.6 h -4.4 v 8.1 c 0,1.2 0.5,1.8 1.7,1.8 0.9,0 1.8,-0.2 2.6,-0.7 v 4.3 c -1.3,0.8 -2.7,1.1 -4.2,1.1 -3.3,0 -5.5,-1.3 -5.5,-5.7 z"
   id="path142"
   style="fill:#000000;fill-opacity:1"
   inkscape:export-filename="C:\Users\cpritchard\OneDrive\OneDrive - Inuvialuit Regional Corporation\projects\ccadi\catalog.inuvialuit.com\catalog\assets\images\brands\02-cfi.png"
   inkscape:export-xdpi="150"
   inkscape:export-ydpi="150" />
<path
   class="st0"
   d="m 618.8,157.1 h 5.6 v 4.8 h -5.6 z m 0.1,6.8 h 5.3 v 18.9 h -5.3 z"
   id="path144"
   style="fill:#000000;fill-opacity:1"
   inkscape:export-filename="C:\Users\cpritchard\OneDrive\OneDrive - Inuvialuit Regional Corporation\projects\ccadi\catalog.inuvialuit.com\catalog\assets\images\brands\02-cfi.png"
   inkscape:export-xdpi="150"
   inkscape:export-ydpi="150" />
<path
   class="st0"
   d="m 627.5,173.4 v 0 c 0.2,-5.7 5,-10.1 10.6,-9.9 5.3,0.2 9.5,4.4 9.8,9.7 v 0.1 c 0,5.5 -4.5,9.9 -10,9.8 -0.1,0 -0.2,0 -0.3,0 -5.4,0.2 -10,-4 -10.2,-9.4 0.1,0 0.1,-0.1 0.1,-0.3 z m 15.1,0 v 0 c 0.1,-2.8 -2,-5.2 -4.8,-5.3 -0.1,0 -0.1,0 -0.2,0 -2.7,0 -4.9,2.1 -4.9,4.8 0,0.1 0,0.2 0,0.4 v 0.1 c -0.1,2.8 2,5.1 4.8,5.2 0.1,0 0.1,0 0.2,0 2.7,0 4.9,-2.1 4.9,-4.8 0,-0.1 0,-0.2 0,-0.4 z"
   id="path146"
   style="fill:#000000;fill-opacity:1"
   inkscape:export-filename="C:\Users\cpritchard\OneDrive\OneDrive - Inuvialuit Regional Corporation\projects\ccadi\catalog.inuvialuit.com\catalog\assets\images\brands\02-cfi.png"
   inkscape:export-xdpi="150"
   inkscape:export-ydpi="150" />
<path
   class="st0"
   d="m 650.9,163.9 h 5.3 v 2.7 c 1.2,-1.9 3.3,-3 5.5,-3 4,0 6.4,2.7 6.4,7 v 12.2 h -5.3 v -10.5 c 0,-2.5 -1.2,-3.8 -3.2,-3.8 -2,0 -3.3,1.3 -3.3,3.8 v 10.5 H 651 v -18.9 z"
   id="path148"
   style="fill:#000000;fill-opacity:1"
   inkscape:export-filename="C:\Users\cpritchard\OneDrive\OneDrive - Inuvialuit Regional Corporation\projects\ccadi\catalog.inuvialuit.com\catalog\assets\images\brands\02-cfi.png"
   inkscape:export-xdpi="150"
   inkscape:export-ydpi="150" />
<path
   class="st0"
   d="m 262,23 c -0.3,0.2 -0.6,0.3 -1,0.5 3.9,0.3 7.7,0.9 11.4,2 14.3,4.6 22.7,19.9 23.4,33.5 1,20.2 -13.8,37 -35.6,37.5 C 247.9,96.9 236,91.9 227.6,82.9 220.4,75 216,65.7 214.3,54.3 c -0.1,-0.3 -0.4,-0.5 -0.7,-0.5 -0.3,0 -0.6,0.3 -0.6,0.6 -0.1,2.5 0.1,5 0.5,7.4 3.1,17.8 15.7,32.8 33.7,39.9 18,7.1 34.7,4.3 50.2,-6.2 24.7,-16.7 23.7,-54 -2.6,-69.3 C 286,21.1 271.6,18.4 262,23 Z"
   id="path150"
   style="fill:#000000;fill-opacity:1"
   inkscape:export-filename="C:\Users\cpritchard\OneDrive\OneDrive - Inuvialuit Regional Corporation\projects\ccadi\catalog.inuvialuit.com\catalog\assets\images\brands\02-cfi.png"
   inkscape:export-xdpi="150"
   inkscape:export-ydpi="150" />
<path
   class="st0"
   d="m 270.9,84.3 c 0.3,-0.2 0.6,-0.3 1,-0.5 -3.9,-0.2 -7.7,-0.7 -11.5,-1.7 -14.4,-4.2 -23.2,-19.3 -24.2,-32.9 -1.4,-20.3 13,-37.4 34.8,-38.4 12.3,-0.7 24.3,4 32.9,12.8 7.4,7.7 12,17 14,28.3 0.1,0.3 0.4,0.5 0.7,0.5 0.3,0 0.6,-0.3 0.6,-0.6 0,-2.5 -0.2,-5 -0.6,-7.4 C 315,26.6 302.1,12 283.9,5.3 c -18.2,-6.7 -34.8,-3.5 -50.1,7.3 -24.3,17.2 -22.4,54.5 4.3,69.2 8.9,4.9 23.3,7.4 32.8,2.5 z"
   id="path152"
   style="fill:#000000;fill-opacity:1"
   inkscape:export-filename="C:\Users\cpritchard\OneDrive\OneDrive - Inuvialuit Regional Corporation\projects\ccadi\catalog.inuvialuit.com\catalog\assets\images\brands\02-cfi.png"
   inkscape:export-xdpi="150"
   inkscape:export-ydpi="150" />
</svg>
